<svg width="286" height="161" viewBox="0 0 286 161" fill="none" xmlns="http://www.w3.org/2000/svg">
<mask id="path-1-outside-1_589_44" maskUnits="userSpaceOnUse" x="2" y="11" width="278" height="146" fill="black">
<rect fill="white" x="2" y="11" width="278" height="146"/>
<path d="M15.9766 21.7441C17.207 21.7441 18.3203 23.502 19.3164 27.0176H19.8438C21.8359 25.4941 24.6191 24.5859 28.1934 24.293C38.5645 24.293 45.5078 33.668 49.0234 52.418L50.3418 67.0957C50.3418 83.8535 44.3652 94.752 32.4121 99.791L27.8418 100.318H27.666C26.377 100.318 24.4434 99.8789 21.8652 99V99.791L22.1289 101.461C22.1289 102.281 21.3086 103.102 19.668 103.922C17.4414 103.922 16.3281 101.52 16.3281 96.7148C14.8047 76.1484 14.043 63.5215 14.043 58.834L14.9219 32.9941C14.9219 30.3574 14.2773 27.457 12.9883 24.293C12.9883 22.9453 13.9844 22.0957 15.9766 21.7441ZM19.3164 58.4824L20.6348 87.5742C22.0996 92.6133 24.2383 95.1328 27.0508 95.1328H29.3359C32.5 95.1328 35.9863 92.7305 39.7949 87.9258C43.1348 82.5938 44.8047 76.2949 44.8047 69.0293V64.3711C44.8047 52.6523 42.4023 42.7793 37.5977 34.752C34.7852 31.4121 32.207 29.7422 29.8633 29.7422H26.5234C22.7734 29.7422 20.6348 32.0566 20.1074 36.6855L19.3164 58.4824ZM63.877 67.623C67.1582 67.623 69.3848 70.582 70.5566 76.5C69.0332 83.1211 65.8984 86.4316 61.1523 86.4316H60.8008V86.6953C61.7383 92.0273 64.2285 94.6934 68.2715 94.6934C71.377 94.6934 73.8965 92.0273 75.8301 86.6953L77.7637 85.9043C79.0527 85.9043 79.873 86.9004 80.2246 88.8926C80.2246 92.5254 77.3828 95.9531 71.6992 99.1758L67.4805 99.9668C62.4414 99.9668 58.6621 96.3633 56.1426 89.1562C55.4395 86.2852 55.0879 83.9121 55.0879 82.0371V80.8945C55.0879 74.918 57.5781 70.582 62.5586 67.8867L63.877 67.623ZM60.625 78.6973V78.873L62.5586 80.8945C63.4375 80.8945 64.2578 79.6934 65.0195 77.291V75.8848C64.7266 74.0684 64.3457 73.1602 63.877 73.1602H63.3496C62.4707 73.1602 61.5625 75.0059 60.625 78.6973ZM95.2539 65.6016C98.3008 65.6016 100.146 66.8906 100.791 69.4688C100.791 70.6992 99.9707 71.4609 98.3301 71.7539H97.5391C96.7773 71.2266 96.1035 70.9629 95.5176 70.9629H94.7266C90.8594 72.6035 88.9258 75.0645 88.9258 78.3457V79.1367C89.2188 81.0703 90.127 82.0371 91.6504 82.0371H92.4414L98.5059 80.8945C101.494 81.2461 102.988 82.7109 102.988 85.2891C102.988 89.0977 100.674 93.1699 96.0449 97.5059C93.877 99.1465 91.6797 99.9668 89.4531 99.9668C85.4102 99.0879 83.3887 97.418 83.3887 94.957C83.9746 93.4922 84.9707 92.7598 86.377 92.7598L89.1016 94.6934H90.5078C94.7852 93.0527 96.9238 90.3867 96.9238 86.6953L96.5723 86.3438C95.1074 86.8711 93.4668 87.1348 91.6504 87.1348C87.3145 87.1348 84.6484 84.3223 83.6523 78.6973C83.6523 73.5996 86.4941 69.4395 92.1777 66.2168L95.2539 65.6016ZM111.953 54.3516C113.477 54.3516 114.414 55.3477 114.766 57.3398C114.766 58.2773 114.121 59.1855 112.832 60.0645H111.953C110.312 60.0645 109.492 59.0684 109.492 57.0762C109.961 55.2598 110.781 54.3516 111.953 54.3516ZM112.568 66.2168C114.561 66.5098 115.117 69.4688 114.238 75.0938C113.535 79.7227 113.418 87.4863 113.887 98.3848C113.008 100.084 111.865 100.816 110.459 100.582C108.818 100.348 108.145 97.4473 108.438 91.8809C108.32 82.1543 108.818 74.0098 109.932 67.4473C110.049 66.5684 110.928 66.1582 112.568 66.2168ZM138.76 67.4473C140.986 67.4473 142.1 70.5527 142.1 76.7637C142.451 80.1621 142.627 87.9258 142.627 100.055C142.627 114.996 141.25 128.385 138.496 140.221C136.152 144.674 132.988 146.9 129.004 146.9C123.672 146.9 117.871 143.736 111.602 137.408L111.074 136.09C111.484 134.215 112.422 133.277 113.887 133.277C114.414 133.277 115.879 134.479 118.281 136.881C122.559 140.045 125.869 141.627 128.213 141.627H129.883C133.516 141.627 135.625 134.332 136.211 119.742C137.031 113.121 137.441 106.09 137.441 98.6484V95.5723C134.688 96.9199 132.549 97.5938 131.025 97.5938C126.221 97.5938 122.822 94.7227 120.83 88.9805C120.01 86.8711 119.6 84.6445 119.6 82.3008C119.6 75.7969 122.295 71.2266 127.686 68.5898L131.377 68.2383C132.725 68.2383 134.072 68.6777 135.42 69.5566H136.035C137.148 68.1504 138.057 67.4473 138.76 67.4473ZM128.477 73.4238C126.133 75.4746 124.961 78.6094 124.961 82.8281C124.961 88.2188 126.719 91.3828 130.234 92.3203H131.377C134.6 92.3203 136.211 89.3613 136.211 83.4434C135.742 76.998 134.189 73.7754 131.553 73.7754L128.477 73.4238ZM162.314 67.8867C168.232 68.3555 170.635 75.4746 169.521 89.2441L168.818 97.0664C168.467 99.1758 167.441 100.172 165.742 100.055C164.16 99.9375 163.457 98.8828 163.633 96.8906L164.248 88.3652C165.068 78.3457 164.189 73.248 161.611 73.0723C158.857 72.8379 156.865 78.0527 155.635 88.7168L155.986 98.209C155.869 99.4395 154.873 100.084 152.998 100.143C150.83 99.9668 150.01 96.8613 150.537 90.8262L148.428 70.6992C148.545 69.3516 149.629 68.6191 151.68 68.502C152.91 68.5605 153.643 69.8789 153.877 72.457L154.229 72.5449C156.865 69.2637 159.561 67.7109 162.314 67.8867ZM183.584 67.623C186.865 67.623 189.092 70.582 190.264 76.5C188.74 83.1211 185.605 86.4316 180.859 86.4316H180.508V86.6953C181.445 92.0273 183.936 94.6934 187.979 94.6934C191.084 94.6934 193.604 92.0273 195.537 86.6953L197.471 85.9043C198.76 85.9043 199.58 86.9004 199.932 88.8926C199.932 92.5254 197.09 95.9531 191.406 99.1758L187.188 99.9668C182.148 99.9668 178.369 96.3633 175.85 89.1562C175.146 86.2852 174.795 83.9121 174.795 82.0371V80.8945C174.795 74.918 177.285 70.582 182.266 67.8867L183.584 67.623ZM180.332 78.6973V78.873L182.266 80.8945C183.145 80.8945 183.965 79.6934 184.727 77.291V75.8848C184.434 74.0684 184.053 73.1602 183.584 73.1602H183.057C182.178 73.1602 181.27 75.0059 180.332 78.6973ZM204.678 63.668C206.26 63.668 207.461 65.5723 208.281 69.3809H208.545C210.771 66.7441 213.174 65.4258 215.752 65.4258C219.971 66.1875 222.08 67.5059 222.08 69.3809C221.553 71.0215 220.645 71.8418 219.355 71.8418L216.016 70.7871H215.137C211.68 71.4316 209.951 78.5508 209.951 92.1445V96.2754C209.6 98.0918 208.779 99 207.49 99C205.615 99 204.678 97.8867 204.678 95.6602V85.4648C204.678 77.9648 203.74 71.4023 201.865 65.7773C202.334 64.3711 203.271 63.668 204.678 63.668ZM262.246 39.3223C263.945 39.3223 264.795 40.3477 264.795 42.3984V55.4062C264.795 56.4609 264.121 57.3984 262.773 58.2188H261.455C260.459 57.457 259.609 57.0762 258.906 57.0762H257.852C257.031 57.0762 256.27 58.1895 255.566 60.416V61.2949L256.709 62.2617H256.973C259.141 62.2617 261.338 61.7344 263.564 60.6797C265.088 60.6797 266.025 61.7051 266.377 63.7559C266.143 64.459 263.74 66.3633 259.17 69.4688L256.973 72.2812V73.7754H258.115C258.818 73.7754 261.865 72.6328 267.256 70.3477H267.432C268.955 70.8164 269.717 71.7539 269.717 73.1602C265.85 80.3086 263.916 86.4902 263.916 91.7051C263.213 92.5254 262.393 92.9941 261.455 93.1113C259.756 92.7012 258.906 91.6465 258.906 89.9473C258.906 88.1895 259.639 84.4395 261.104 78.6973L257.588 78.873C254.131 78.873 252.168 76.8516 251.699 72.8086C251.699 71.8711 252.549 69.9375 254.248 67.0078C251.611 65.543 250.293 63.3457 250.293 60.416C250.293 56.5488 252.607 53.7656 257.236 52.0664L259.434 51.8027V42.6621C259.434 40.4355 260.371 39.3223 262.246 39.3223Z"/>
</mask>
<path d="M15.9766 21.7441C17.207 21.7441 18.3203 23.502 19.3164 27.0176H19.8438C21.8359 25.4941 24.6191 24.5859 28.1934 24.293C38.5645 24.293 45.5078 33.668 49.0234 52.418L50.3418 67.0957C50.3418 83.8535 44.3652 94.752 32.4121 99.791L27.8418 100.318H27.666C26.377 100.318 24.4434 99.8789 21.8652 99V99.791L22.1289 101.461C22.1289 102.281 21.3086 103.102 19.668 103.922C17.4414 103.922 16.3281 101.52 16.3281 96.7148C14.8047 76.1484 14.043 63.5215 14.043 58.834L14.9219 32.9941C14.9219 30.3574 14.2773 27.457 12.9883 24.293C12.9883 22.9453 13.9844 22.0957 15.9766 21.7441ZM19.3164 58.4824L20.6348 87.5742C22.0996 92.6133 24.2383 95.1328 27.0508 95.1328H29.3359C32.5 95.1328 35.9863 92.7305 39.7949 87.9258C43.1348 82.5938 44.8047 76.2949 44.8047 69.0293V64.3711C44.8047 52.6523 42.4023 42.7793 37.5977 34.752C34.7852 31.4121 32.207 29.7422 29.8633 29.7422H26.5234C22.7734 29.7422 20.6348 32.0566 20.1074 36.6855L19.3164 58.4824ZM63.877 67.623C67.1582 67.623 69.3848 70.582 70.5566 76.5C69.0332 83.1211 65.8984 86.4316 61.1523 86.4316H60.8008V86.6953C61.7383 92.0273 64.2285 94.6934 68.2715 94.6934C71.377 94.6934 73.8965 92.0273 75.8301 86.6953L77.7637 85.9043C79.0527 85.9043 79.873 86.9004 80.2246 88.8926C80.2246 92.5254 77.3828 95.9531 71.6992 99.1758L67.4805 99.9668C62.4414 99.9668 58.6621 96.3633 56.1426 89.1562C55.4395 86.2852 55.0879 83.9121 55.0879 82.0371V80.8945C55.0879 74.918 57.5781 70.582 62.5586 67.8867L63.877 67.623ZM60.625 78.6973V78.873L62.5586 80.8945C63.4375 80.8945 64.2578 79.6934 65.0195 77.291V75.8848C64.7266 74.0684 64.3457 73.1602 63.877 73.1602H63.3496C62.4707 73.1602 61.5625 75.0059 60.625 78.6973ZM95.2539 65.6016C98.3008 65.6016 100.146 66.8906 100.791 69.4688C100.791 70.6992 99.9707 71.4609 98.3301 71.7539H97.5391C96.7773 71.2266 96.1035 70.9629 95.5176 70.9629H94.7266C90.8594 72.6035 88.9258 75.0645 88.9258 78.3457V79.1367C89.2188 81.0703 90.127 82.0371 91.6504 82.0371H92.4414L98.5059 80.8945C101.494 81.2461 102.988 82.7109 102.988 85.2891C102.988 89.0977 100.674 93.1699 96.0449 97.5059C93.877 99.1465 91.6797 99.9668 89.4531 99.9668C85.4102 99.0879 83.3887 97.418 83.3887 94.957C83.9746 93.4922 84.9707 92.7598 86.377 92.7598L89.1016 94.6934H90.5078C94.7852 93.0527 96.9238 90.3867 96.9238 86.6953L96.5723 86.3438C95.1074 86.8711 93.4668 87.1348 91.6504 87.1348C87.3145 87.1348 84.6484 84.3223 83.6523 78.6973C83.6523 73.5996 86.4941 69.4395 92.1777 66.2168L95.2539 65.6016ZM111.953 54.3516C113.477 54.3516 114.414 55.3477 114.766 57.3398C114.766 58.2773 114.121 59.1855 112.832 60.0645H111.953C110.312 60.0645 109.492 59.0684 109.492 57.0762C109.961 55.2598 110.781 54.3516 111.953 54.3516ZM112.568 66.2168C114.561 66.5098 115.117 69.4688 114.238 75.0938C113.535 79.7227 113.418 87.4863 113.887 98.3848C113.008 100.084 111.865 100.816 110.459 100.582C108.818 100.348 108.145 97.4473 108.438 91.8809C108.32 82.1543 108.818 74.0098 109.932 67.4473C110.049 66.5684 110.928 66.1582 112.568 66.2168ZM138.76 67.4473C140.986 67.4473 142.1 70.5527 142.1 76.7637C142.451 80.1621 142.627 87.9258 142.627 100.055C142.627 114.996 141.25 128.385 138.496 140.221C136.152 144.674 132.988 146.9 129.004 146.9C123.672 146.9 117.871 143.736 111.602 137.408L111.074 136.09C111.484 134.215 112.422 133.277 113.887 133.277C114.414 133.277 115.879 134.479 118.281 136.881C122.559 140.045 125.869 141.627 128.213 141.627H129.883C133.516 141.627 135.625 134.332 136.211 119.742C137.031 113.121 137.441 106.09 137.441 98.6484V95.5723C134.688 96.9199 132.549 97.5938 131.025 97.5938C126.221 97.5938 122.822 94.7227 120.83 88.9805C120.01 86.8711 119.6 84.6445 119.6 82.3008C119.6 75.7969 122.295 71.2266 127.686 68.5898L131.377 68.2383C132.725 68.2383 134.072 68.6777 135.42 69.5566H136.035C137.148 68.1504 138.057 67.4473 138.76 67.4473ZM128.477 73.4238C126.133 75.4746 124.961 78.6094 124.961 82.8281C124.961 88.2188 126.719 91.3828 130.234 92.3203H131.377C134.6 92.3203 136.211 89.3613 136.211 83.4434C135.742 76.998 134.189 73.7754 131.553 73.7754L128.477 73.4238ZM162.314 67.8867C168.232 68.3555 170.635 75.4746 169.521 89.2441L168.818 97.0664C168.467 99.1758 167.441 100.172 165.742 100.055C164.16 99.9375 163.457 98.8828 163.633 96.8906L164.248 88.3652C165.068 78.3457 164.189 73.248 161.611 73.0723C158.857 72.8379 156.865 78.0527 155.635 88.7168L155.986 98.209C155.869 99.4395 154.873 100.084 152.998 100.143C150.83 99.9668 150.01 96.8613 150.537 90.8262L148.428 70.6992C148.545 69.3516 149.629 68.6191 151.68 68.502C152.91 68.5605 153.643 69.8789 153.877 72.457L154.229 72.5449C156.865 69.2637 159.561 67.7109 162.314 67.8867ZM183.584 67.623C186.865 67.623 189.092 70.582 190.264 76.5C188.74 83.1211 185.605 86.4316 180.859 86.4316H180.508V86.6953C181.445 92.0273 183.936 94.6934 187.979 94.6934C191.084 94.6934 193.604 92.0273 195.537 86.6953L197.471 85.9043C198.76 85.9043 199.58 86.9004 199.932 88.8926C199.932 92.5254 197.09 95.9531 191.406 99.1758L187.188 99.9668C182.148 99.9668 178.369 96.3633 175.85 89.1562C175.146 86.2852 174.795 83.9121 174.795 82.0371V80.8945C174.795 74.918 177.285 70.582 182.266 67.8867L183.584 67.623ZM180.332 78.6973V78.873L182.266 80.8945C183.145 80.8945 183.965 79.6934 184.727 77.291V75.8848C184.434 74.0684 184.053 73.1602 183.584 73.1602H183.057C182.178 73.1602 181.27 75.0059 180.332 78.6973ZM204.678 63.668C206.26 63.668 207.461 65.5723 208.281 69.3809H208.545C210.771 66.7441 213.174 65.4258 215.752 65.4258C219.971 66.1875 222.08 67.5059 222.08 69.3809C221.553 71.0215 220.645 71.8418 219.355 71.8418L216.016 70.7871H215.137C211.68 71.4316 209.951 78.5508 209.951 92.1445V96.2754C209.6 98.0918 208.779 99 207.49 99C205.615 99 204.678 97.8867 204.678 95.6602V85.4648C204.678 77.9648 203.74 71.4023 201.865 65.7773C202.334 64.3711 203.271 63.668 204.678 63.668ZM262.246 39.3223C263.945 39.3223 264.795 40.3477 264.795 42.3984V55.4062C264.795 56.4609 264.121 57.3984 262.773 58.2188H261.455C260.459 57.457 259.609 57.0762 258.906 57.0762H257.852C257.031 57.0762 256.27 58.1895 255.566 60.416V61.2949L256.709 62.2617H256.973C259.141 62.2617 261.338 61.7344 263.564 60.6797C265.088 60.6797 266.025 61.7051 266.377 63.7559C266.143 64.459 263.74 66.3633 259.17 69.4688L256.973 72.2812V73.7754H258.115C258.818 73.7754 261.865 72.6328 267.256 70.3477H267.432C268.955 70.8164 269.717 71.7539 269.717 73.1602C265.85 80.3086 263.916 86.4902 263.916 91.7051C263.213 92.5254 262.393 92.9941 261.455 93.1113C259.756 92.7012 258.906 91.6465 258.906 89.9473C258.906 88.1895 259.639 84.4395 261.104 78.6973L257.588 78.873C254.131 78.873 252.168 76.8516 251.699 72.8086C251.699 71.8711 252.549 69.9375 254.248 67.0078C251.611 65.543 250.293 63.3457 250.293 60.416C250.293 56.5488 252.607 53.7656 257.236 52.0664L259.434 51.8027V42.6621C259.434 40.4355 260.371 39.3223 262.246 39.3223Z" fill="#262626"/>
<path d="M15.9766 21.7441V11.7441H15.101L14.2387 11.8963L15.9766 21.7441ZM19.3164 27.0176L9.69514 29.7436L11.7561 37.0176H19.3164V27.0176ZM19.8438 27.0176V37.0176H23.2291L25.9183 34.9612L19.8438 27.0176ZM28.1934 24.293V14.293H27.7842L27.3764 14.3264L28.1934 24.293ZM49.0234 52.418L58.9833 51.5234L58.9405 51.0461L58.8522 50.5751L49.0234 52.418ZM50.3418 67.0957H60.3418V66.6475L60.3017 66.2011L50.3418 67.0957ZM32.4121 99.791L33.5584 109.725L34.979 109.561L36.2967 109.006L32.4121 99.791ZM27.8418 100.318V110.318H28.4168L28.988 110.252L27.8418 100.318ZM21.8652 99L25.092 89.5349L11.8652 85.0258V99H21.8652ZM21.8652 99.791H11.8652V100.576L11.9876 101.351L21.8652 99.791ZM22.1289 101.461H32.1289V100.676L32.0065 99.9013L22.1289 101.461ZM19.668 103.922V113.922H22.0286L24.1401 112.866L19.668 103.922ZM16.3281 96.7148H26.3281V96.345L26.3008 95.9761L16.3281 96.7148ZM14.043 58.834L4.04875 58.494L4.04297 58.664V58.834H14.043ZM14.9219 32.9941L24.9161 33.3341L24.9219 33.1642V32.9941H14.9219ZM12.9883 24.293H2.98828V26.2518L3.72736 28.0659L12.9883 24.293ZM19.3164 58.4824L9.32298 58.1198L9.30819 58.5275L9.32666 58.9351L19.3164 58.4824ZM20.6348 87.5742L10.645 88.0269L10.6991 89.2194L11.0323 90.3656L20.6348 87.5742ZM39.7949 87.9258L47.6315 94.1377L47.9756 93.7036L48.2697 93.2341L39.7949 87.9258ZM37.5977 34.752L46.1781 29.6162L45.765 28.9259L45.2468 28.3106L37.5977 34.752ZM20.1074 36.6855L10.1717 35.5536L10.128 35.9371L10.114 36.3229L20.1074 36.6855ZM15.9766 31.7441C13.731 31.7441 11.9755 30.8973 10.8774 30.0737C9.88521 29.3296 9.40561 28.6016 9.28618 28.413C9.07977 28.0871 9.29338 28.3256 9.69514 29.7436L28.9377 24.2916C28.3433 22.1939 27.5023 19.7957 26.1826 17.712C25.0775 15.9671 21.876 11.7441 15.9766 11.7441V31.7441ZM19.3164 37.0176H19.8438V17.0176H19.3164V37.0176ZM25.9183 34.9612C25.866 35.0011 26.5644 34.46 29.0103 34.2595L27.3764 14.3264C22.6739 14.7118 17.8058 15.9872 13.7692 19.074L25.9183 34.9612ZM28.1934 34.293C29.7813 34.293 31.2868 34.7694 33.1432 37.2759C35.3176 40.2118 37.5595 45.5395 39.1947 54.2609L58.8522 50.5751C56.9718 40.5465 53.9842 31.8116 49.2152 25.3725C44.1283 18.5041 36.9765 14.293 28.1934 14.293V34.293ZM39.0635 53.3126L40.3819 67.9903L60.3017 66.2011L58.9833 51.5234L39.0635 53.3126ZM40.3418 67.0957C40.3418 74.355 39.0387 79.4783 37.0913 83.0296C35.2373 86.4103 32.5237 88.8917 28.5275 90.5764L36.2967 109.006C44.2537 105.651 50.5049 100.164 54.6275 92.6462C58.6566 85.299 60.3418 76.5942 60.3418 67.0957H40.3418ZM31.2659 89.8569L26.6956 90.3843L28.988 110.252L33.5584 109.725L31.2659 89.8569ZM27.8418 90.3184H27.666V110.318H27.8418V90.3184ZM27.666 90.3184C28.0525 90.3184 28.0491 90.3701 27.4652 90.2374C26.9394 90.1179 26.1623 89.8998 25.092 89.5349L18.6385 108.465C21.3635 109.394 24.6225 110.318 27.666 110.318V90.3184ZM11.8652 99V99.791H31.8652V99H11.8652ZM11.9876 101.351L12.2513 103.021L32.0065 99.9013L31.7429 98.2314L11.9876 101.351ZM12.1289 101.461C12.1289 98.2835 13.7628 96.3002 14.4426 95.6203C15.102 94.961 15.5456 94.8027 15.1958 94.9776L24.1401 112.866C25.431 112.221 27.1051 111.242 28.5847 109.762C30.0849 108.262 32.1289 105.459 32.1289 101.461H12.1289ZM19.668 93.9219C21.0247 93.9219 22.6202 94.3278 24.0461 95.3534C25.3706 96.3061 25.994 97.3929 26.2362 97.9155C26.4687 98.4173 26.4655 98.6378 26.4197 98.3413C26.3785 98.0751 26.3281 97.5553 26.3281 96.7148H6.32812C6.32812 99.5744 6.61005 103.131 8.08998 106.325C8.88881 108.049 10.208 110.036 12.3675 111.589C14.6283 113.216 17.198 113.922 19.668 113.922V93.9219ZM26.3008 95.9761C24.7654 75.2483 24.043 63.0621 24.043 58.834H4.04297C4.04297 63.9808 4.84397 77.0486 6.35545 97.4536L26.3008 95.9761ZM24.0372 59.1739L24.9161 33.3341L4.92765 32.6542L4.04875 58.494L24.0372 59.1739ZM24.9219 32.9941C24.9219 28.7431 23.8887 24.5442 22.2492 20.52L3.72736 28.0659C4.666 30.3699 4.92188 31.9717 4.92188 32.9941H24.9219ZM22.9883 24.293C22.9883 25.2125 22.8119 26.3376 22.2829 27.5045C21.7503 28.6792 20.9967 29.595 20.2248 30.2534C19.486 30.8835 18.8074 31.2154 18.3988 31.3797C17.9912 31.5435 17.7332 31.5887 17.7144 31.592L14.2387 11.8963C12.3643 12.2271 9.64641 12.9892 7.24589 15.0367C4.44628 17.4246 2.98828 20.7902 2.98828 24.293H22.9883ZM9.32666 58.9351L10.645 88.0269L30.6245 87.1215L29.3062 58.0297L9.32666 58.9351ZM11.0323 90.3656C11.9524 93.5308 13.3539 96.9345 15.7136 99.7145C18.3148 102.779 22.1836 105.133 27.0508 105.133V85.1328C27.9035 85.1328 28.7988 85.3387 29.6031 85.748C30.3669 86.1367 30.798 86.5796 30.9612 86.7718C31.1114 86.9488 31.0588 86.9393 30.8864 86.5777C30.718 86.2245 30.4887 85.6477 30.2373 84.7828L11.0323 90.3656ZM27.0508 105.133H29.3359V85.1328H27.0508V105.133ZM29.3359 105.133C37.4536 105.133 43.5515 99.2848 47.6315 94.1377L31.9583 81.7139C30.4202 83.6543 29.2994 84.649 28.6496 85.0967C28.021 85.5299 28.309 85.1328 29.3359 85.1328V105.133ZM48.2697 93.2341C52.7527 86.077 54.8047 77.8759 54.8047 69.0293H34.8047C34.8047 74.714 33.5168 79.1105 31.3202 82.6174L48.2697 93.2341ZM54.8047 69.0293V64.3711H34.8047V69.0293H54.8047ZM54.8047 64.3711C54.8047 51.2962 52.1195 39.5427 46.1781 29.6162L29.0172 39.8877C32.6852 46.0159 34.8047 54.0085 34.8047 64.3711H54.8047ZM45.2468 28.3106C42.047 24.5109 36.8927 19.7422 29.8633 19.7422V39.7422C28.5911 39.7422 27.954 39.2814 28.1182 39.3878C28.1913 39.4351 28.3955 39.5794 28.7247 39.8853C29.0514 40.1889 29.4609 40.6142 29.9485 41.1933L45.2468 28.3106ZM29.8633 19.7422H26.5234V39.7422H29.8633V19.7422ZM26.5234 19.7422C22.4352 19.7422 18.0831 21.0978 14.7625 24.6914C11.7079 27.997 10.5663 32.0902 10.1717 35.5536L30.0432 37.8175C30.1759 36.652 30.3673 37.2735 29.4514 38.2647C28.9588 38.7978 28.3324 39.2232 27.671 39.4831C27.0476 39.7281 26.6106 39.7422 26.5234 39.7422V19.7422ZM10.114 36.3229L9.32298 58.1198L29.3098 58.8451L30.1008 37.0482L10.114 36.3229ZM63.877 67.623V57.623H62.8868L61.9158 57.8172L63.877 67.623ZM70.5566 76.5L80.302 78.7423L80.7819 76.6568L80.3662 74.5575L70.5566 76.5ZM60.8008 86.4316V76.4316H50.8008V86.4316H60.8008ZM60.8008 86.6953H50.8008V87.5677L50.9519 88.427L60.8008 86.6953ZM75.8301 86.6953L72.0437 77.4398L67.9405 79.1184L66.4291 83.2862L75.8301 86.6953ZM77.7637 85.9043V75.9043H75.7973L73.9773 76.6488L77.7637 85.9043ZM80.2246 88.8926H90.2246V88.017L90.0724 87.1547L80.2246 88.8926ZM71.6992 99.1758L73.5421 109.005L75.1811 108.697L76.6316 107.875L71.6992 99.1758ZM67.4805 99.9668V109.967H68.4099L69.3234 109.796L67.4805 99.9668ZM56.1426 89.1562L46.4296 91.5349L46.544 92.0022L46.7028 92.4563L56.1426 89.1562ZM62.5586 67.8867L60.5974 58.0809L59.1222 58.376L57.7991 59.092L62.5586 67.8867ZM60.625 78.6973L50.9327 76.2357L50.625 77.4473V78.6973H60.625ZM60.625 78.873H50.625V82.8856L53.3986 85.7853L60.625 78.873ZM62.5586 80.8945L55.3322 87.8068L58.2857 90.8945H62.5586V80.8945ZM65.0195 77.291L74.5518 80.3135L75.0195 78.8384V77.291H65.0195ZM65.0195 75.8848H75.0195V75.0835L74.8919 74.2924L65.0195 75.8848ZM63.877 77.623C63.1303 77.623 62.2469 77.438 61.4075 76.9871C60.6065 76.5567 60.1725 76.0612 60.0173 75.8549C59.8804 75.673 59.9605 75.7203 60.141 76.1917C60.3173 76.6524 60.5365 77.3789 60.7471 78.4425L80.3662 74.5575C79.6504 70.9429 78.4121 67.0374 75.9983 63.8296C73.2739 60.2091 69.095 57.623 63.877 57.623V77.623ZM60.8113 74.2577C60.5533 75.3788 60.2784 76.1295 60.0583 76.5987C59.8402 77.0636 59.7199 77.1595 59.8018 77.0731C59.9079 76.961 60.1581 76.7505 60.5369 76.5913C60.9068 76.4359 61.156 76.4316 61.1523 76.4316V96.4316C66.1455 96.4316 70.7829 94.5643 74.3242 90.8244C77.5769 87.3893 79.3226 82.9991 80.302 78.7423L60.8113 74.2577ZM61.1523 76.4316H60.8008V96.4316H61.1523V76.4316ZM50.8008 86.4316V86.6953H70.8008V86.4316H50.8008ZM50.9519 88.427C51.6035 92.1332 53.0009 96.2409 56.0637 99.5199C59.4155 103.108 63.8119 104.693 68.2715 104.693V84.6934C68.3689 84.6934 68.7637 84.7123 69.3086 84.9347C69.8766 85.1665 70.3496 85.5147 70.6795 85.8678C70.9829 86.1926 71.0445 86.3906 70.9865 86.2553C70.9246 86.1108 70.7816 85.7139 70.6497 84.9636L50.9519 88.427ZM68.2715 104.693C78.3821 104.693 83.1388 95.8738 85.231 90.1044L66.4291 83.2862C66.0866 84.2306 65.777 84.8916 65.533 85.3299C65.2856 85.7741 65.1607 85.8904 65.2223 85.8253C65.2952 85.7482 65.6093 85.4408 66.2078 85.1571C66.8402 84.8573 67.563 84.6934 68.2715 84.6934V104.693ZM79.6164 95.9508L81.55 95.1598L73.9773 76.6488L72.0437 77.4398L79.6164 95.9508ZM77.7637 95.9043C76.7663 95.9043 75.579 95.7033 74.3725 95.1336C73.1663 94.5639 72.2583 93.7757 71.6264 93.0084C71.0221 92.2746 70.7115 91.614 70.5633 91.2361C70.486 91.0388 70.4398 90.8853 70.4139 90.789C70.3878 90.6921 70.3778 90.6365 70.3768 90.6304L90.0724 87.1547C89.7515 85.3362 89.0234 82.6723 87.065 80.2943C84.7575 77.4924 81.3999 75.9043 77.7637 75.9043V95.9043ZM70.2246 88.8926C70.2246 87.8867 70.6755 87.4671 70.3949 87.8056C70.0199 88.2579 69.002 89.2095 66.7668 90.4768L76.6316 107.875C82.9343 104.301 90.2246 98.2976 90.2246 88.8926H70.2246ZM69.8563 89.3471L65.6376 90.1381L69.3234 109.796L73.5421 109.005L69.8563 89.3471ZM67.4805 89.9668C67.4417 89.9668 67.553 89.9659 67.7201 90.0342C67.8808 90.0999 67.8955 90.1488 67.7675 90.0268C67.4303 89.7053 66.5431 88.6044 65.5824 85.8562L46.7028 92.4563C49.7699 101.23 56.0782 109.967 67.4805 109.967V89.9668ZM65.8556 86.7776C65.2472 84.2935 65.0879 82.7886 65.0879 82.0371H45.0879C45.0879 85.0356 45.6317 88.2768 46.4296 91.5349L65.8556 86.7776ZM65.0879 82.0371V80.8945H45.0879V82.0371H65.0879ZM65.0879 80.8945C65.0879 79.312 65.4082 78.5217 65.6272 78.1405C65.8296 77.788 66.2388 77.2655 67.3181 76.6814L57.7991 59.092C53.8979 61.2032 50.5718 64.1963 48.284 68.1798C46.0127 72.1345 45.0879 76.5005 45.0879 80.8945H65.0879ZM64.5198 77.6925L65.8381 77.4289L61.9158 57.8172L60.5974 58.0809L64.5198 77.6925ZM50.625 78.6973V78.873H70.625V78.6973H50.625ZM53.3986 85.7853L55.3322 87.8068L69.785 73.9823L67.8514 71.9608L53.3986 85.7853ZM62.5586 90.8945C68.0104 90.8945 71.0508 87.1564 72.091 85.6333C73.3107 83.8473 74.0582 81.8704 74.5518 80.3135L55.4872 74.2686C55.2192 75.114 55.1756 74.9389 55.575 74.354C55.7949 74.032 57.9857 70.8945 62.5586 70.8945V90.8945ZM75.0195 77.291V75.8848H55.0195V77.291H75.0195ZM74.8919 74.2924C74.7081 73.1529 74.3915 71.5368 73.7361 69.974C73.4182 69.2159 72.7639 67.8342 71.5148 66.4989C70.1636 65.0545 67.5835 63.1602 63.877 63.1602V83.1602C60.4048 83.1602 58.0481 81.3793 56.9093 80.162C55.8726 79.0537 55.4197 78.0126 55.2922 77.7086C55.0177 77.054 55.0379 76.8002 55.1471 77.4771L74.8919 74.2924ZM63.877 63.1602H63.3496V83.1602H63.877V63.1602ZM63.3496 63.1602C59.3823 63.1602 56.7355 65.2748 55.5008 66.5501C54.2508 67.8411 53.4823 69.2238 53.0367 70.1294C52.1181 71.9962 51.4543 74.1821 50.9327 76.2357L70.3173 81.1588C70.7332 79.5211 70.9923 78.9383 70.9819 78.9595C70.96 79.004 70.88 79.1627 70.7299 79.3934C70.5861 79.6143 70.3091 80.008 69.8691 80.4623C69.0811 81.2762 66.8774 83.1602 63.3496 83.1602V63.1602ZM95.2539 65.6016V55.6016H94.2637L93.2927 55.7958L95.2539 65.6016ZM100.791 69.4688H110.791V68.2377L110.492 67.0434L100.791 69.4688ZM98.3301 71.7539V81.7539H99.2159L100.088 81.5982L98.3301 71.7539ZM97.5391 71.7539L91.847 79.9758L94.4153 81.7539H97.5391V71.7539ZM94.7266 70.9629V60.9629H92.6931L90.8211 61.7571L94.7266 70.9629ZM88.9258 79.1367H78.9258V79.89L79.0386 80.6348L88.9258 79.1367ZM92.4414 82.0371V92.0371H93.3752L94.2929 91.8642L92.4414 82.0371ZM98.5059 80.8945L99.6743 70.963L98.1563 70.7844L96.6544 71.0674L98.5059 80.8945ZM96.0449 97.5059L102.079 105.48L102.498 105.163L102.881 104.804L96.0449 97.5059ZM89.4531 99.9668L87.3288 109.739L88.3787 109.967H89.4531V99.9668ZM83.3887 94.957L74.1039 91.2431L73.3887 93.0312V94.957H83.3887ZM86.377 92.7598L92.1644 84.6047L89.5648 82.7598H86.377V92.7598ZM89.1016 94.6934L83.3141 102.848L85.9138 104.693H89.1016V94.6934ZM90.5078 94.6934V104.693H92.3598L94.089 104.03L90.5078 94.6934ZM96.9238 86.6953H106.924V82.5532L103.995 79.6242L96.9238 86.6953ZM96.5723 86.3438L103.643 79.2727L99.156 74.7853L93.1851 76.9349L96.5723 86.3438ZM83.6523 78.6973H73.6523V79.5758L73.8055 80.441L83.6523 78.6973ZM92.1777 66.2168L90.2166 56.411L88.6421 56.7259L87.2453 57.5179L92.1777 66.2168ZM95.2539 75.6016C95.4384 75.6016 94.4539 75.6443 93.1975 74.7668C91.7957 73.7878 91.2413 72.5009 91.0896 71.8941L110.492 67.0434C109.696 63.8585 107.897 60.638 104.649 58.3699C101.547 56.2033 98.1163 55.6016 95.2539 55.6016V75.6016ZM90.791 69.4688C90.791 67.61 91.5294 65.3453 93.3713 63.635C94.8963 62.2189 96.3693 61.9459 96.5722 61.9096L100.088 81.5982C101.931 81.269 104.635 80.4686 106.98 78.2908C109.643 75.8188 110.791 72.5579 110.791 69.4688H90.791ZM98.3301 61.7539H97.5391V81.7539H98.3301V61.7539ZM103.231 63.532C101.693 62.4674 99.0074 60.9629 95.5176 60.9629V80.9629C94.3087 80.9629 93.379 80.6924 92.8184 80.4731C92.2641 80.2562 91.9359 80.0374 91.847 79.9758L103.231 63.532ZM95.5176 60.9629H94.7266V80.9629H95.5176V60.9629ZM90.8211 61.7571C87.8448 63.0197 84.8184 64.9264 82.5128 67.8608C80.0913 70.9428 78.9258 74.5812 78.9258 78.3457H98.9258C98.9258 78.5204 98.8976 78.8373 98.7654 79.2298C98.6314 79.6281 98.4364 79.9662 98.2392 80.2173C97.8672 80.6907 97.7412 80.5467 98.6321 80.1687L90.8211 61.7571ZM78.9258 78.3457V79.1367H98.9258V78.3457H78.9258ZM79.0386 80.6348C79.3523 82.7051 80.1803 85.6488 82.5382 88.1588C85.1694 90.9597 88.5773 92.0371 91.6504 92.0371V72.0371C93.2001 72.0371 95.3921 72.6311 97.1151 74.4653C98.5648 76.0085 98.7922 77.5019 98.8129 77.6387L79.0386 80.6348ZM91.6504 92.0371H92.4414V72.0371H91.6504V92.0371ZM94.2929 91.8642L100.357 90.7216L96.6544 71.0674L90.5899 72.21L94.2929 91.8642ZM97.3374 90.826C97.5662 90.853 96.2624 90.7656 94.867 89.3976C93.2685 87.8304 92.9883 86.0226 92.9883 85.2891H112.988C112.988 81.9774 111.961 78.1481 108.868 75.1161C105.979 72.2832 102.434 71.2877 99.6743 70.963L97.3374 90.826ZM92.9883 85.2891C92.9883 85.1047 93.0549 85.3851 92.5585 86.2585C92.039 87.1725 91.0303 88.5012 89.2086 90.2076L102.881 104.804C108.246 99.7793 112.988 93.232 112.988 85.2891H92.9883ZM90.0105 89.5318C89.5799 89.8577 89.3322 89.9612 89.2735 89.9831C89.2333 89.9982 89.3094 89.9668 89.4531 89.9668V109.967C94.3045 109.967 98.5675 108.138 102.079 105.48L90.0105 89.5318ZM91.5774 90.195C90.3047 89.9183 90.5437 89.7426 91.2736 90.3456C91.7115 90.7073 92.2951 91.3296 92.7499 92.2589C93.2133 93.2059 93.3887 94.158 93.3887 94.957H73.3887C73.3887 99.3868 75.3979 103.172 78.536 105.765C81.2873 108.038 84.5586 109.136 87.3288 109.739L91.5774 90.195ZM92.6734 98.6709C92.4623 99.1987 91.8678 100.359 90.4991 101.366C89.0494 102.432 87.4997 102.76 86.377 102.76V82.7598C83.8479 82.7598 81.0971 83.4542 78.6513 85.2526C76.2865 86.9914 74.9009 89.2505 74.1039 91.2431L92.6734 98.6709ZM80.5895 100.915L83.3141 102.848L94.889 86.5383L92.1644 84.6047L80.5895 100.915ZM89.1016 104.693H90.5078V84.6934H89.1016V104.693ZM94.089 104.03C97.3381 102.784 100.627 100.829 103.12 97.7208C105.731 94.4667 106.924 90.6215 106.924 86.6953H86.9238C86.9238 86.6426 86.9335 86.414 87.0448 86.0831C87.1593 85.7428 87.3333 85.4381 87.5195 85.206C87.874 84.764 87.9549 84.9622 86.9266 85.3566L94.089 104.03ZM103.995 79.6242L103.643 79.2727L89.5012 93.4148L89.8528 93.7664L103.995 79.6242ZM93.1851 76.9349C92.9711 77.0119 92.5008 77.1348 91.6504 77.1348V97.1348C94.4328 97.1348 97.2438 96.7303 99.9595 95.7526L93.1851 76.9349ZM91.6504 77.1348C91.6487 77.1348 91.7268 77.1346 91.8689 77.1601C92.0135 77.1861 92.2099 77.2361 92.4388 77.328C92.9362 77.5278 93.3603 77.8334 93.6565 78.1458C93.927 78.4313 93.9636 78.5866 93.8858 78.4072C93.8034 78.2176 93.6432 77.7672 93.4991 76.9536L73.8055 80.441C74.4923 84.3192 75.9635 88.5524 79.1414 91.9049C82.5968 95.5502 87.0973 97.1348 91.6504 97.1348V77.1348ZM93.6523 78.6973C93.6523 78.2388 93.5363 76.9421 97.1101 74.9157L87.2453 57.5179C79.452 61.9368 73.6523 68.9604 73.6523 78.6973H93.6523ZM94.1389 76.0226L97.2151 75.4074L93.2927 55.7958L90.2166 56.411L94.1389 76.0226ZM114.766 57.3398H124.766V56.4643L124.613 55.602L114.766 57.3398ZM112.832 60.0645V70.0645H115.917L118.465 68.3267L112.832 60.0645ZM109.492 57.0762L99.8094 54.5774L99.4922 55.8066V57.0762H109.492ZM112.568 66.2168L114.023 56.3232L113.477 56.2429L112.925 56.2232L112.568 66.2168ZM114.238 75.0938L104.358 73.55L104.355 73.571L104.352 73.592L114.238 75.0938ZM113.887 98.3848L122.769 102.979L123.992 100.615L123.877 97.9551L113.887 98.3848ZM110.459 100.582L112.103 90.7181L111.988 90.699L111.873 90.6825L110.459 100.582ZM108.438 91.8809L118.424 92.4064L118.441 92.0836L118.437 91.7604L108.438 91.8809ZM109.932 67.4473L119.791 69.1198L119.82 68.9448L119.844 68.7689L109.932 67.4473ZM111.953 64.3516C110.304 64.3516 108.163 63.7013 106.517 61.9523C105.154 60.5041 104.928 59.1349 104.918 59.0777L124.613 55.602C124.252 53.5526 123.381 50.6892 121.081 48.245C118.497 45.4999 115.126 44.3516 111.953 44.3516V64.3516ZM104.766 57.3398C104.766 55.3682 105.48 53.848 106.127 52.9367C106.431 52.5079 106.713 52.2202 106.891 52.056C107.069 51.8908 107.186 51.8106 107.199 51.8022L118.465 68.3267C120.657 66.8326 124.766 63.3095 124.766 57.3398H104.766ZM112.832 50.0645H111.953V70.0645H112.832V50.0645ZM111.953 50.0645C113.241 50.0645 115.841 50.5492 117.827 52.9603C119.506 54.9997 119.492 56.9518 119.492 57.0762H99.4922C99.4922 59.1927 99.8883 62.639 102.388 65.6745C105.194 69.0817 109.024 70.0645 111.953 70.0645V50.0645ZM119.175 59.575C119.171 59.5909 119.114 59.8119 118.949 60.1608C118.785 60.5078 118.461 61.0924 117.88 61.7356C117.277 62.4027 116.421 63.1044 115.288 63.6209C114.145 64.1422 112.989 64.3516 111.953 64.3516V44.3516C108.399 44.3516 105.249 45.882 103.038 48.3299C101.12 50.453 100.251 52.8645 99.8094 54.5774L119.175 59.575ZM111.113 76.1104C109.002 75.7999 107.14 74.6588 105.923 73.1052C104.904 71.8048 104.684 70.6717 104.652 70.5045C104.609 70.2743 104.658 70.3843 104.635 70.9997C104.614 71.5791 104.536 72.4145 104.358 73.55L124.118 76.6375C124.606 73.5166 124.909 70.002 124.308 66.807C123.998 65.1603 123.32 62.881 121.664 60.7676C119.809 58.4011 117.131 56.7802 114.023 56.3232L111.113 76.1104ZM104.352 73.592C103.489 79.2709 103.426 87.893 103.896 98.8145L123.877 97.9551C123.41 87.0797 123.581 80.1744 124.125 76.5955L104.352 73.592ZM105.005 93.7905C105.058 93.6866 105.584 92.6805 106.974 91.7897C108.602 90.7461 110.496 90.4503 112.103 90.7181L108.815 110.446C111.828 110.948 114.997 110.403 117.767 108.627C120.299 107.004 121.836 104.782 122.769 102.979L105.005 93.7905ZM111.873 90.6825C113.099 90.8577 114.273 91.298 115.303 91.9617C116.306 92.6072 117 93.351 117.455 93.9667C117.9 94.5697 118.147 95.0914 118.274 95.4014C118.403 95.7167 118.453 95.9239 118.464 95.968C118.478 96.0296 118.42 95.7873 118.389 95.1064C118.36 94.4555 118.363 93.568 118.424 92.4064L98.4513 91.3553C98.2905 94.4108 98.3226 97.6532 98.9826 100.494C99.4546 102.526 101.509 109.405 109.045 110.482L111.873 90.6825ZM118.437 91.7604C118.324 82.3867 118.812 74.8876 119.791 69.1198L100.073 65.7747C98.8244 73.1319 98.3168 81.9219 98.4382 92.0013L118.437 91.7604ZM119.844 68.7689C119.662 70.1356 119.122 71.636 118.075 72.9905C117.055 74.311 115.859 75.0982 114.908 75.5423C113.995 75.9681 113.245 76.1114 112.863 76.1648C112.464 76.2204 112.225 76.2109 112.211 76.2104L112.925 56.2232C111.48 56.1715 108.992 56.2324 106.45 57.4186C103.265 58.9047 100.577 61.9445 100.019 66.1256L119.844 68.7689ZM142.1 76.7637H132.1V77.2795L132.153 77.7927L142.1 76.7637ZM138.496 140.221L147.345 144.878L147.944 143.74L148.236 142.487L138.496 140.221ZM111.602 137.408L102.317 141.122L103.07 143.005L104.498 144.446L111.602 137.408ZM111.074 136.09L101.305 133.953L100.649 136.953L101.789 139.804L111.074 136.09ZM118.281 136.881L111.21 143.952L111.736 144.478L112.334 144.92L118.281 136.881ZM136.211 119.742L126.287 118.513L126.236 118.925L126.219 119.341L136.211 119.742ZM137.441 95.5723H147.441V79.5455L133.046 86.5901L137.441 95.5723ZM120.83 88.9805L130.278 85.7027L130.217 85.5282L130.15 85.356L120.83 88.9805ZM127.686 68.5898L126.737 58.6349L124.926 58.8074L123.292 59.6069L127.686 68.5898ZM131.377 68.2383V58.2383H130.902L130.429 58.2833L131.377 68.2383ZM135.42 69.5566L129.957 77.9327L132.447 79.5566H135.42V69.5566ZM136.035 69.5566V79.5566H140.873L143.876 75.7637L136.035 69.5566ZM128.477 73.4238L129.612 63.4885L125.219 62.9864L121.892 65.8981L128.477 73.4238ZM130.234 92.3203L127.658 101.983L128.924 102.32H130.234V92.3203ZM136.211 83.4434H146.211V83.0802L146.185 82.718L136.211 83.4434ZM131.553 73.7754L130.417 83.7107L130.983 83.7754H131.553V73.7754ZM138.76 77.4473C137.849 77.4473 136.846 77.2831 135.841 76.8824C134.839 76.4833 134.029 75.9269 133.412 75.3529C132.252 74.275 131.888 73.2543 131.851 73.151C131.794 72.9924 131.877 73.1707 131.962 73.8743C132.041 74.5427 132.1 75.4889 132.1 76.7637H152.1C152.1 73.3373 151.828 69.6108 150.678 66.4018C150.084 64.7457 149.025 62.5605 147.03 60.7062C144.812 58.6436 141.91 57.4473 138.76 57.4473V77.4473ZM132.153 77.7927C132.44 80.573 132.627 87.7755 132.627 100.055H152.627C152.627 88.076 152.462 79.7512 152.047 75.7347L132.153 77.7927ZM132.627 100.055C132.627 114.4 131.303 127.008 128.756 137.955L148.236 142.487C151.197 129.761 152.627 115.592 152.627 100.055H132.627ZM129.647 135.563C128.999 136.795 128.566 137.083 128.61 137.052C128.641 137.031 128.732 136.976 128.865 136.935C128.994 136.895 129.057 136.9 129.004 136.9V156.9C137.728 156.9 143.809 151.596 147.345 144.878L129.647 135.563ZM129.004 136.9C127.656 136.9 124.288 136.005 118.705 130.37L104.498 144.446C111.454 151.468 119.688 156.9 129.004 156.9V136.9ZM120.886 133.694L120.359 132.376L101.789 139.804L102.317 141.122L120.886 133.694ZM120.843 138.227C120.813 138.366 120.518 139.69 119.156 141.052C117.544 142.663 115.501 143.277 113.887 143.277V123.277C110.807 123.277 107.563 124.36 105.014 126.909C102.715 129.209 101.746 131.939 101.305 133.953L120.843 138.227ZM113.887 143.277C112.991 143.277 112.252 143.153 111.728 143.031C111.196 142.907 110.766 142.757 110.461 142.637C109.872 142.405 109.466 142.17 109.295 142.066C108.958 141.863 108.846 141.752 109.04 141.911C109.394 142.201 110.09 142.832 111.21 143.952L125.352 129.81C124.07 128.527 122.832 127.356 121.722 126.446C121.183 126.004 120.457 125.442 119.621 124.939C119.278 124.732 117.008 123.277 113.887 123.277V143.277ZM112.334 144.92C114.778 146.728 117.237 148.305 119.66 149.463C121.979 150.571 124.942 151.627 128.213 151.627V131.627C129.14 131.627 129.276 131.892 128.284 131.418C127.397 130.994 126.061 130.197 124.228 128.841L112.334 144.92ZM128.213 151.627H129.883V131.627H128.213V151.627ZM129.883 151.627C134.679 151.627 138.14 149.035 140.179 146.444C142.042 144.079 143.109 141.308 143.796 138.934C145.195 134.097 145.901 127.649 146.203 120.143L126.219 119.341C125.934 126.425 125.294 130.92 124.583 133.378C124.215 134.651 124.037 134.616 124.464 134.074C125.068 133.307 126.903 131.627 129.883 131.627V151.627ZM146.135 120.972C147.011 113.899 147.441 106.455 147.441 98.6484H127.441C127.441 105.725 127.051 112.343 126.287 118.513L146.135 120.972ZM147.441 98.6484V95.5723H127.441V98.6484H147.441ZM133.046 86.5901C131.967 87.118 131.222 87.407 130.767 87.5506C130.548 87.6196 130.456 87.6358 130.474 87.6325C130.487 87.6301 130.683 87.5938 131.025 87.5938V107.594C134.956 107.594 138.828 106.027 141.837 104.554L133.046 86.5901ZM131.025 87.5938C130.831 87.5938 130.847 87.567 130.989 87.6168C131.142 87.6704 131.267 87.7515 131.327 87.8016C131.412 87.8737 130.892 87.4745 130.278 85.7027L111.383 92.2582C112.76 96.2287 114.936 100.136 118.42 103.079C122.073 106.166 126.464 107.594 131.025 107.594V87.5938ZM130.15 85.356C129.795 84.4433 129.6 83.4495 129.6 82.3008H109.6C109.6 85.8395 110.224 89.2989 111.51 92.6049L130.15 85.356ZM129.6 82.3008C129.6 80.4337 129.979 79.5083 130.235 79.075C130.462 78.6901 130.905 78.1474 132.079 77.5728L123.292 59.6069C119.076 61.669 115.476 64.7298 113.007 68.9153C110.568 73.0522 109.6 77.664 109.6 82.3008H129.6ZM128.634 78.5448L132.325 78.1932L130.429 58.2833L126.737 58.6349L128.634 78.5448ZM131.377 78.2383C130.944 78.2383 130.573 78.1648 130.298 78.0752C130.035 77.9893 129.921 77.909 129.957 77.9327L140.883 61.1805C138.23 59.4503 135.014 58.2383 131.377 58.2383V78.2383ZM135.42 79.5566H136.035V59.5566H135.42V79.5566ZM143.876 75.7637C144.177 75.3829 144.111 75.5429 143.673 75.8818C143.434 76.0665 142.939 76.4193 142.193 76.7445C141.439 77.0737 140.259 77.4473 138.76 77.4473V57.4473C135.176 57.4473 132.613 59.1511 131.43 60.0674C130.084 61.1095 129.007 62.3242 128.195 63.3496L143.876 75.7637ZM121.892 65.8981C116.683 70.4557 114.961 76.7992 114.961 82.8281H134.961C134.961 81.6158 135.133 81.0128 135.207 80.8146C135.257 80.6793 135.228 80.8039 135.062 80.9496L121.892 65.8981ZM114.961 82.8281C114.961 86.4534 115.527 90.4806 117.538 94.1006C119.742 98.0687 123.294 100.819 127.658 101.983L132.811 82.658C133.11 82.7376 133.578 82.9258 134.067 83.3062C134.557 83.6873 134.861 84.1008 135.021 84.3877C135.165 84.6468 135.142 84.7127 135.086 84.4409C135.03 84.1665 134.961 83.6502 134.961 82.8281H114.961ZM130.234 102.32H131.377V82.3203H130.234V102.32ZM131.377 102.32C133.767 102.32 136.33 101.753 138.713 100.294C141.072 98.8503 142.703 96.8707 143.785 94.8835C145.785 91.2098 146.211 86.9827 146.211 83.4434H126.211C126.211 84.4974 126.137 85.1699 126.07 85.541C125.998 85.934 125.974 85.7714 126.22 85.3186C126.497 84.8109 127.12 83.941 128.271 83.2365C129.445 82.5178 130.599 82.3203 131.377 82.3203V102.32ZM146.185 82.718C145.92 79.0863 145.302 75.169 143.704 71.8518C141.956 68.2246 138.09 63.7754 131.553 63.7754V83.7754C130.001 83.7754 128.45 83.2444 127.23 82.3059C126.158 81.4817 125.747 80.6604 125.686 80.533C125.618 80.3913 125.723 80.5683 125.868 81.2603C126.007 81.9239 126.143 82.8744 126.237 84.1687L146.185 82.718ZM132.688 63.8401L129.612 63.4885L127.341 83.3592L130.417 83.7107L132.688 63.8401ZM162.314 67.8867L163.104 57.9179L163.028 57.9119L162.951 57.907L162.314 67.8867ZM169.521 89.2441L179.481 90.1394L179.485 90.0947L179.489 90.05L169.521 89.2441ZM168.818 97.0664L178.682 98.7104L178.744 98.3378L178.778 97.9617L168.818 97.0664ZM165.742 100.055L165.003 110.027L165.029 110.029L165.054 110.031L165.742 100.055ZM163.633 96.8906L173.594 97.7696L173.601 97.69L173.607 97.6104L163.633 96.8906ZM164.248 88.3652L154.281 87.5493L154.277 87.5973L154.274 87.6455L164.248 88.3652ZM161.611 73.0723L160.763 83.0362L160.847 83.0434L160.931 83.0491L161.611 73.0723ZM155.635 88.7168L145.701 87.5706L145.613 88.3265L145.642 89.0869L155.635 88.7168ZM155.986 98.209L165.941 99.1571L166.004 98.4992L165.979 97.8389L155.986 98.209ZM152.998 100.143L152.19 110.11L152.749 110.155L153.31 110.138L152.998 100.143ZM150.537 90.8262L160.499 91.6966L160.583 90.7395L160.483 89.7838L150.537 90.8262ZM148.428 70.6992L138.465 69.8329L138.382 70.788L138.482 71.7415L148.428 70.6992ZM151.68 68.502L152.155 58.5133L151.632 58.4884L151.109 58.5182L151.68 68.502ZM153.877 72.457L143.918 73.3624L144.561 80.4358L151.452 82.1585L153.877 72.457ZM154.229 72.5449L151.803 82.2463L158.014 83.799L162.024 78.8088L154.229 72.5449ZM161.525 77.8555C160.919 77.8075 160.05 77.5074 159.355 76.874C158.793 76.3611 158.847 76.0842 159.08 76.775C159.621 78.3799 160.078 81.9621 159.554 88.4383L179.489 90.05C180.079 82.7567 179.891 75.8945 178.03 70.3803C177.062 67.5115 175.475 64.5063 172.832 62.0964C170.058 59.5661 166.669 58.2003 163.104 57.9179L161.525 77.8555ZM159.562 88.3489L158.859 96.1711L178.778 97.9617L179.481 90.1394L159.562 88.3489ZM158.954 95.4224C158.964 95.3634 159.209 93.7851 160.818 92.2227C162.733 90.3619 165.038 89.9824 166.43 90.0784L165.054 110.031C168.146 110.244 171.813 109.425 174.754 106.568C177.387 104.01 178.321 100.879 178.682 98.7104L158.954 95.4224ZM166.481 90.082C167.913 90.1881 170.567 90.9559 172.349 93.6288C173.806 95.8146 173.598 97.7288 173.594 97.7696L153.672 96.0117C153.492 98.0447 153.547 101.482 155.708 104.723C158.193 108.45 161.989 109.804 165.003 110.027L166.481 90.082ZM173.607 97.6104L174.222 89.085L154.274 87.6455L153.659 96.1708L173.607 97.6104ZM174.215 89.1812C174.642 83.9633 174.719 79.1594 174.059 75.3283C173.737 73.4611 173.103 70.953 171.589 68.6444C169.863 66.0102 166.754 63.3997 162.292 63.0954L160.931 83.0491C159.555 82.9553 158.201 82.5059 157.031 81.7416C155.916 81.0139 155.236 80.1787 154.863 79.6095C154.214 78.6193 154.232 78.0447 154.35 78.7264C154.568 79.993 154.675 82.7477 154.281 87.5493L174.215 89.1812ZM162.459 63.1083C158.023 62.7307 154.573 64.7911 152.449 67.0195C150.548 69.0151 149.423 71.3739 148.71 73.2389C147.256 77.0452 146.341 82.0224 145.701 87.5706L165.569 89.863C166.159 84.7472 166.855 81.7849 167.393 80.3763C167.677 79.6339 167.643 80.0664 166.928 80.8169C166.516 81.2498 165.772 81.8955 164.642 82.393C163.452 82.9165 162.11 83.1508 160.763 83.0362L162.459 63.1083ZM145.642 89.0869L145.993 98.5791L165.979 97.8389L165.628 88.3467L145.642 89.0869ZM146.031 97.2609C146.123 96.2965 146.426 95.1107 147.135 93.9166C147.851 92.7106 148.789 91.8211 149.719 91.2195C150.605 90.6461 151.391 90.3909 151.861 90.2758C152.331 90.1606 152.634 90.1491 152.686 90.1475L153.31 110.138C155.106 110.082 157.911 109.74 160.584 108.011C163.771 105.949 165.607 102.668 165.941 99.1571L146.031 97.2609ZM153.806 90.1753C154.718 90.2492 155.712 90.495 156.692 90.9808C157.668 91.4649 158.44 92.0937 159.018 92.7281C160.104 93.9204 160.39 94.9963 160.425 95.1277C160.475 95.3162 160.411 95.1605 160.389 94.4829C160.369 93.8411 160.392 92.9282 160.499 91.6966L140.575 89.9557C140.284 93.2914 140.227 96.9744 141.088 100.236C141.533 101.92 142.398 104.182 144.231 106.195C146.273 108.436 149.066 109.857 152.19 110.11L153.806 90.1753ZM160.483 89.7838L158.373 69.6569L138.482 71.7415L140.592 91.8685L160.483 89.7838ZM158.39 71.5655C158.309 72.5006 158.025 73.6469 157.357 74.8046C156.683 75.9717 155.798 76.8364 154.927 77.425C154.096 77.9865 153.363 78.2419 152.939 78.357C152.514 78.4722 152.256 78.4853 152.25 78.4857L151.109 58.5182C149.22 58.6262 146.385 59.0591 143.73 60.8533C140.592 62.9735 138.775 66.2727 138.465 69.8329L158.39 71.5655ZM151.204 78.4906C149.676 78.4179 148.115 77.9149 146.766 76.9687C145.496 76.0774 144.778 75.0521 144.41 74.3911C143.78 73.2569 143.849 72.6061 143.918 73.3624L163.836 71.5517C163.67 69.7298 163.256 67.1308 161.893 64.6782C160.282 61.7784 157.04 58.7459 152.155 58.5133L151.204 78.4906ZM151.452 82.1585L151.803 82.2463L156.654 62.8435L156.302 62.7556L151.452 82.1585ZM162.024 78.8088C162.408 78.331 162.715 78.015 162.934 77.8167C163.152 77.6187 163.251 77.5662 163.219 77.5844C163.181 77.6064 163.009 77.6987 162.71 77.7742C162.402 77.8521 162.046 77.8899 161.677 77.8664L162.951 57.907C155.507 57.4318 149.994 61.8507 146.433 66.281L162.024 78.8088ZM183.584 67.623V57.623H182.594L181.623 57.8172L183.584 67.623ZM190.264 76.5L200.009 78.7423L200.489 76.6568L200.073 74.5575L190.264 76.5ZM180.508 86.4316V76.4316H170.508V86.4316H180.508ZM180.508 86.6953H170.508V87.5677L170.659 88.427L180.508 86.6953ZM195.537 86.6953L191.751 77.4398L187.648 79.1184L186.136 83.2862L195.537 86.6953ZM197.471 85.9043V75.9043H195.504L193.684 76.6488L197.471 85.9043ZM199.932 88.8926H209.932V88.017L209.779 87.1547L199.932 88.8926ZM191.406 99.1758L193.249 109.005L194.888 108.697L196.339 107.875L191.406 99.1758ZM187.188 99.9668V109.967H188.117L189.03 109.796L187.188 99.9668ZM175.85 89.1562L166.137 91.5349L166.251 92.0022L166.41 92.4563L175.85 89.1562ZM182.266 67.8867L180.304 58.0809L178.829 58.376L177.506 59.092L182.266 67.8867ZM180.332 78.6973L170.64 76.2357L170.332 77.4473V78.6973H180.332ZM180.332 78.873H170.332V82.8856L173.106 85.7853L180.332 78.873ZM182.266 80.8945L175.039 87.8068L177.993 90.8945H182.266V80.8945ZM184.727 77.291L194.259 80.3135L194.727 78.8384V77.291H184.727ZM184.727 75.8848H194.727V75.0835L194.599 74.2924L184.727 75.8848ZM183.584 77.623C182.837 77.623 181.954 77.438 181.115 76.9871C180.314 76.5567 179.88 76.0612 179.724 75.8549C179.587 75.673 179.668 75.7203 179.848 76.1917C180.024 76.6524 180.244 77.3789 180.454 78.4425L200.073 74.5575C199.357 70.9429 198.119 67.0374 195.705 63.8296C192.981 60.2091 188.802 57.623 183.584 57.623V77.623ZM180.518 74.2577C180.26 75.3788 179.985 76.1295 179.765 76.5987C179.547 77.0636 179.427 77.1595 179.509 77.0731C179.615 76.961 179.865 76.7505 180.244 76.5913C180.614 76.4359 180.863 76.4316 180.859 76.4316V96.4316C185.853 96.4316 190.49 94.5643 194.031 90.8244C197.284 87.3893 199.03 82.9991 200.009 78.7423L180.518 74.2577ZM180.859 76.4316H180.508V96.4316H180.859V76.4316ZM170.508 86.4316V86.6953H190.508V86.4316H170.508ZM170.659 88.427C171.311 92.1332 172.708 96.2409 175.771 99.5199C179.122 103.108 183.519 104.693 187.979 104.693V84.6934C188.076 84.6934 188.471 84.7123 189.016 84.9347C189.584 85.1665 190.057 85.5147 190.386 85.8678C190.69 86.1926 190.752 86.3906 190.694 86.2553C190.632 86.1108 190.489 85.7139 190.357 84.9636L170.659 88.427ZM187.979 104.693C198.089 104.693 202.846 95.8738 204.938 90.1044L186.136 83.2862C185.794 84.2306 185.484 84.8916 185.24 85.3299C184.993 85.7741 184.868 85.8904 184.929 85.8253C185.002 85.7482 185.316 85.4408 185.915 85.1571C186.547 84.8573 187.27 84.6934 187.979 84.6934V104.693ZM199.323 95.9508L201.257 95.1598L193.684 76.6488L191.751 77.4398L199.323 95.9508ZM197.471 95.9043C196.473 95.9043 195.286 95.7033 194.08 95.1336C192.873 94.5639 191.965 93.7757 191.333 93.0084C190.729 92.2746 190.419 91.614 190.27 91.2361C190.193 91.0388 190.147 90.8853 190.121 90.789C190.095 90.6921 190.085 90.6365 190.084 90.6304L209.779 87.1547C209.459 85.3362 208.73 82.6723 206.772 80.2943C204.465 77.4924 201.107 75.9043 197.471 75.9043V95.9043ZM189.932 88.8926C189.932 87.8867 190.383 87.4671 190.102 87.8056C189.727 88.2579 188.709 89.2095 186.474 90.4768L196.339 107.875C202.641 104.301 209.932 98.2976 209.932 88.8926H189.932ZM189.563 89.3471L185.345 90.1381L189.03 109.796L193.249 109.005L189.563 89.3471ZM187.188 89.9668C187.149 89.9668 187.26 89.9659 187.427 90.0342C187.588 90.0999 187.602 90.1488 187.474 90.0268C187.137 89.7053 186.25 88.6044 185.289 85.8562L166.41 92.4563C169.477 101.23 175.785 109.967 187.188 109.967V89.9668ZM185.563 86.7776C184.954 84.2935 184.795 82.7886 184.795 82.0371H164.795C164.795 85.0356 165.339 88.2768 166.137 91.5349L185.563 86.7776ZM184.795 82.0371V80.8945H164.795V82.0371H184.795ZM184.795 80.8945C184.795 79.312 185.115 78.5217 185.334 78.1405C185.537 77.788 185.946 77.2655 187.025 76.6814L177.506 59.092C173.605 61.2032 170.279 64.1963 167.991 68.1798C165.72 72.1345 164.795 76.5005 164.795 80.8945H184.795ZM184.227 77.6925L185.545 77.4289L181.623 57.8172L180.304 58.0809L184.227 77.6925ZM170.332 78.6973V78.873H190.332V78.6973H170.332ZM173.106 85.7853L175.039 87.8068L189.492 73.9823L187.558 71.9608L173.106 85.7853ZM182.266 90.8945C187.717 90.8945 190.758 87.1564 191.798 85.6333C193.018 83.8473 193.765 81.8704 194.259 80.3135L175.194 74.2686C174.926 75.114 174.883 74.9389 175.282 74.354C175.502 74.032 177.693 70.8945 182.266 70.8945V90.8945ZM194.727 77.291V75.8848H174.727V77.291H194.727ZM194.599 74.2924C194.415 73.1529 194.098 71.5368 193.443 69.974C193.125 69.2159 192.471 67.8342 191.222 66.4989C189.871 65.0545 187.291 63.1602 183.584 63.1602V83.1602C180.112 83.1602 177.755 81.3793 176.616 80.162C175.58 79.0537 175.127 78.0126 174.999 77.7086C174.725 77.054 174.745 76.8002 174.854 77.4771L194.599 74.2924ZM183.584 63.1602H183.057V83.1602H183.584V63.1602ZM183.057 63.1602C179.089 63.1602 176.443 65.2748 175.208 66.5501C173.958 67.8411 173.189 69.2238 172.744 70.1294C171.825 71.9962 171.161 74.1821 170.64 76.2357L190.024 81.1588C190.44 79.5211 190.699 78.9383 190.689 78.9595C190.667 79.004 190.587 79.1627 190.437 79.3934C190.293 79.6143 190.016 80.008 189.576 80.4623C188.788 81.2762 186.584 83.1602 183.057 83.1602V63.1602ZM208.281 69.3809L198.505 71.4864L200.206 79.3809H208.281V69.3809ZM208.545 69.3809V79.3809H213.189L216.185 75.8327L208.545 69.3809ZM215.752 65.4258L217.529 55.5849L216.647 55.4258H215.752V65.4258ZM222.08 69.3809L231.6 72.441L232.08 70.9485V69.3809H222.08ZM219.355 71.8418L216.344 81.3776L217.814 81.8418H219.355V71.8418ZM216.016 70.7871L219.027 61.2513L217.557 60.7871H216.016V70.7871ZM215.137 70.7871V60.7871H214.212L213.304 60.9565L215.137 70.7871ZM209.951 96.2754L219.769 98.1756L219.951 97.2342V96.2754H209.951ZM201.865 65.7773L192.378 62.6151L191.324 65.7773L192.378 68.9396L201.865 65.7773ZM204.678 73.668C202.923 73.668 201.346 73.0992 200.146 72.2781C199.058 71.5336 198.504 70.743 198.307 70.4312C197.986 69.9228 198.189 70.0173 198.505 71.4864L218.057 67.2753C217.553 64.9358 216.745 62.1738 215.223 59.7612C213.638 57.2475 210.235 53.668 204.678 53.668V73.668ZM208.281 79.3809H208.545V59.3809H208.281V79.3809ZM216.185 75.8327C216.703 75.2194 216.943 75.118 216.828 75.1812C216.762 75.2172 216.62 75.2844 216.41 75.34C216.197 75.3964 215.97 75.4258 215.752 75.4258V55.4258C209.314 55.4258 204.349 58.8503 200.905 62.9291L216.185 75.8327ZM213.975 75.2667C214.696 75.3968 215.151 75.5202 215.398 75.6014C215.665 75.6891 215.538 75.6784 215.198 75.4658C214.859 75.2541 214.066 74.6895 213.341 73.5906C212.548 72.3902 212.08 70.9143 212.08 69.3809H232.08C232.08 63.8957 228.703 60.3217 225.798 58.5059C223.157 56.855 220.116 56.0521 217.529 55.5849L213.975 75.2667ZM212.56 66.3208C212.626 66.1136 213.021 64.9611 214.301 63.8055C215.789 62.4613 217.668 61.8418 219.355 61.8418V81.8418C222.332 81.8418 225.31 80.8122 227.706 78.6476C229.894 76.6717 231.006 74.2887 231.6 72.441L212.56 66.3208ZM222.367 62.306L219.027 61.2513L213.004 80.3229L216.344 81.3776L222.367 62.306ZM216.016 60.7871H215.137V80.7871H216.016V60.7871ZM213.304 60.9565C209.008 61.7574 206.188 64.4812 204.552 66.9303C202.991 69.2681 202.099 71.9052 201.53 74.2504C200.382 78.98 199.951 85.1059 199.951 92.1445H219.951C219.951 85.5894 220.385 81.3589 220.965 78.9693C221.26 77.755 221.449 77.6418 221.184 78.0387C220.844 78.5468 219.537 80.1391 216.97 80.6177L213.304 60.9565ZM199.951 92.1445V96.2754H219.951V92.1445H199.951ZM200.133 94.3752C200.14 94.3425 200.367 93.0373 201.651 91.616C202.345 90.8476 203.272 90.1368 204.415 89.6449C205.544 89.1584 206.619 89 207.49 89V109C210.793 109 214.076 107.698 216.493 105.022C218.597 102.692 219.411 100.025 219.769 98.1756L200.133 94.3752ZM207.49 89C208.588 89 211.079 89.4073 213.03 91.7237C214.703 93.7109 214.678 95.6112 214.678 95.6602H194.678C194.678 97.9357 195.121 101.506 197.732 104.606C200.62 108.036 204.518 109 207.49 109V89ZM214.678 95.6602V85.4648H194.678V95.6602H214.678ZM214.678 85.4648C214.678 77.1614 213.643 69.4887 211.352 62.6151L192.378 68.9396C193.837 73.316 194.678 78.7683 194.678 85.4648H214.678ZM211.352 68.9396C211.114 69.654 210.463 71.0383 208.92 72.1953C207.333 73.3858 205.693 73.668 204.678 73.668V53.668C202.256 53.668 199.445 54.3017 196.92 56.1953C194.44 58.0554 193.085 60.4944 192.378 62.6151L211.352 68.9396ZM262.773 58.2188V68.2188H265.578L267.973 66.7607L262.773 58.2188ZM261.455 58.2188L255.381 66.1623L258.07 68.2188H261.455V58.2188ZM255.566 60.416L246.031 57.4047L245.566 58.8746V60.416H255.566ZM255.566 61.2949H245.566V65.9329L249.107 68.9288L255.566 61.2949ZM256.709 62.2617L250.25 69.8956L253.046 72.2617H256.709V62.2617ZM263.564 60.6797V50.6797H261.316L259.284 51.6423L263.564 60.6797ZM266.377 63.7559L275.864 66.9181L276.657 64.5385L276.233 62.0662L266.377 63.7559ZM259.17 69.4688L253.55 61.1975L252.254 62.0779L251.29 63.3123L259.17 69.4688ZM256.973 72.2812L249.092 66.1248L246.973 68.8381V72.2812H256.973ZM256.973 73.7754H246.973V83.7754H256.973V73.7754ZM267.256 70.3477V60.3477H265.224L263.353 61.1407L267.256 70.3477ZM267.432 70.3477L270.372 60.7899L268.935 60.3477H267.432V70.3477ZM269.717 73.1602L278.512 77.9183L279.717 75.6917V73.1602H269.717ZM263.916 91.7051L271.509 98.213L273.916 95.4043V91.7051H263.916ZM261.455 93.1113L259.109 102.832L260.884 103.261L262.695 103.034L261.455 93.1113ZM261.104 78.6973L270.793 81.1691L274.144 68.0327L260.604 68.7097L261.104 78.6973ZM257.588 78.873V88.873H257.838L258.087 88.8606L257.588 78.873ZM251.699 72.8086H241.699V73.3864L241.766 73.9603L251.699 72.8086ZM254.248 67.0078L262.898 72.025L268.009 63.2133L259.104 58.2662L254.248 67.0078ZM257.236 52.0664L256.045 42.1376L254.886 42.2767L253.79 42.6789L257.236 52.0664ZM259.434 51.8027L260.625 61.7315L269.434 60.6745V51.8027H259.434ZM262.246 49.3223C261.007 49.3223 258.435 48.8583 256.457 46.4715C254.778 44.4449 254.795 42.5048 254.795 42.3984H274.795C274.795 40.2413 274.387 36.7632 271.858 33.7111C269.031 30.299 265.184 29.3223 262.246 29.3223V49.3223ZM254.795 42.3984V55.4062H274.795V42.3984H254.795ZM254.795 55.4062C254.795 53.64 255.406 52.1266 256.169 51.064C256.845 50.1238 257.496 49.7239 257.574 49.6768L267.973 66.7607C270.708 65.0957 274.795 61.48 274.795 55.4062H254.795ZM262.773 48.2188H261.455V68.2188H262.773V48.2188ZM267.53 50.2752C265.999 49.1046 262.953 47.0762 258.906 47.0762V67.0762C257.47 67.0762 256.445 66.6953 255.98 66.4869C255.506 66.2741 255.299 66.1002 255.381 66.1623L267.53 50.2752ZM258.906 47.0762H257.852V67.0762H258.906V47.0762ZM257.852 47.0762C252.452 47.0762 249.44 50.7619 248.412 52.2643C247.215 54.0135 246.496 55.9321 246.031 57.4047L265.102 63.4273C265.34 62.6734 265.353 62.9221 264.918 63.558C264.652 63.9471 262.431 67.0762 257.852 67.0762V47.0762ZM245.566 60.416V61.2949H265.566V60.416H245.566ZM249.107 68.9288L250.25 69.8956L263.168 54.6279L262.026 53.6611L249.107 68.9288ZM256.709 72.2617H256.973V52.2617H256.709V72.2617ZM256.973 72.2617C260.811 72.2617 264.464 71.3189 267.845 69.7171L259.284 51.6423C258.212 52.1498 257.47 52.2617 256.973 52.2617V72.2617ZM263.564 70.6797C262.812 70.6797 261.824 70.5497 260.751 70.1027C259.657 69.6467 258.736 68.9687 258.03 68.1964C257.351 67.4541 256.977 66.7438 256.78 66.2749C256.587 65.8138 256.531 65.5042 256.521 65.4455L276.233 62.0662C275.884 60.0313 275.045 57.1667 272.79 54.701C270.232 51.9032 266.831 50.6797 263.564 50.6797V70.6797ZM256.89 60.5936C257.161 59.7811 257.486 59.1727 257.703 58.8058C257.931 58.422 258.14 58.135 258.278 57.9564C258.544 57.6134 258.743 57.4178 258.763 57.398C258.806 57.3559 258.661 57.4999 258.187 57.8748C257.272 58.6002 255.765 59.6922 253.55 61.1975L264.79 77.74C267.145 76.1398 269.124 74.7269 270.611 73.548C271.339 72.9708 272.124 72.3128 272.826 71.6189C273.176 71.2731 273.637 70.7891 274.096 70.1952C274.465 69.7192 275.313 68.5704 275.864 66.9181L256.89 60.5936ZM251.29 63.3123L249.092 66.1248L264.853 78.4377L267.05 75.6252L251.29 63.3123ZM246.973 72.2812V73.7754H266.973V72.2812H246.973ZM256.973 83.7754H258.115V63.7754H256.973V83.7754ZM258.115 83.7754C260.001 83.7754 261.701 83.2172 261.997 83.127C262.754 82.8963 263.59 82.6 264.439 82.2817C266.159 81.6369 268.419 80.7162 271.159 79.5546L263.353 61.1407C260.703 62.2643 258.744 63.0574 257.416 63.5552C256.742 63.8082 256.348 63.9404 256.167 63.9953C256.075 64.0236 256.145 63.9987 256.325 63.9587C256.371 63.9486 257.096 63.7754 258.115 63.7754V83.7754ZM267.256 80.3477H267.432V60.3477H267.256V80.3477ZM264.491 79.9054C263.954 79.7404 262.595 79.1982 261.384 77.7083C260.086 76.1101 259.717 74.3584 259.717 73.1602H279.717C279.717 70.5557 278.967 67.6321 276.907 65.0964C274.934 62.669 272.432 61.4236 270.372 60.7899L264.491 79.9054ZM260.921 68.402C256.664 76.2715 253.916 84.1526 253.916 91.7051H273.916C273.916 88.8279 275.035 84.3457 278.512 77.9183L260.921 68.402ZM256.323 85.1972C256.612 84.8602 257.095 84.399 257.812 83.9894C258.548 83.5688 259.373 83.2937 260.215 83.1885L262.695 103.034C266.456 102.564 269.435 100.632 271.509 98.213L256.323 85.1972ZM263.801 83.3905C264.468 83.5514 266.015 84.1058 267.331 85.7394C268.671 87.4029 268.906 89.1091 268.906 89.9473H248.906C248.906 92.4847 249.566 95.5678 251.756 98.286C253.921 100.974 256.743 102.261 259.109 102.832L263.801 83.3905ZM268.906 89.9473C268.906 90.1022 268.918 89.5337 269.27 87.7333C269.586 86.1162 270.085 83.9445 270.793 81.1691L251.414 76.2254C250.657 79.1923 250.058 81.7666 249.641 83.8995C249.26 85.8491 248.906 88.0345 248.906 89.9473H268.906ZM260.604 68.7097L257.089 68.8855L258.087 88.8606L261.603 88.6848L260.604 68.7097ZM257.588 68.873C257.69 68.873 258.135 68.8876 258.77 69.1245C259.444 69.3759 260.127 69.8033 260.697 70.3906C261.801 71.5276 261.722 72.4303 261.633 71.6569L241.766 73.9603C242.145 77.2299 243.282 81.1648 246.349 84.3233C249.625 87.6976 253.811 88.873 257.588 88.873V68.873ZM261.699 72.8086C261.699 73.4215 261.632 73.8946 261.583 74.1725C261.531 74.4613 261.475 74.6628 261.447 74.7563C261.397 74.9274 261.386 74.9189 261.492 74.678C261.589 74.4556 261.748 74.1217 261.99 73.6604C262.229 73.2041 262.529 72.6611 262.898 72.025L245.598 61.9906C244.658 63.6104 243.817 65.1852 243.181 66.6325C242.726 67.6683 241.699 70.0677 241.699 72.8086H261.699ZM259.104 58.2662C259.046 58.2338 259.465 58.4633 259.857 59.1163C260.257 59.7841 260.293 60.3332 260.293 60.416H240.293C240.293 63.4285 240.988 66.541 242.707 69.4062C244.417 72.2564 246.813 74.317 249.392 75.7494L259.104 58.2662ZM260.293 60.416C260.293 60.4585 260.284 60.6813 260.171 61.0057C260.055 61.3389 259.884 61.6222 259.718 61.8221C259.563 62.008 259.488 62.0319 259.622 61.9455C259.764 61.8541 260.09 61.6714 260.682 61.4539L253.79 42.6789C250.397 43.9244 246.959 45.8849 244.34 49.0343C241.583 52.3499 240.293 56.3187 240.293 60.416H260.293ZM258.428 61.9952L260.625 61.7315L258.242 41.874L256.045 42.1376L258.428 61.9952ZM269.434 51.8027V42.6621H249.434V51.8027H269.434ZM269.434 42.6621C269.434 42.7111 269.459 44.6114 267.786 46.5986C265.835 48.915 263.344 49.3223 262.246 49.3223V29.3223C259.273 29.3223 255.376 30.2862 252.488 33.7159C249.877 36.8164 249.434 40.3866 249.434 42.6621H269.434Z" fill="white" mask="url(#path-1-outside-1_589_44)"/>
</svg>
