<svg width="284" height="158" viewBox="0 0 284 158" fill="none" xmlns="http://www.w3.org/2000/svg">
<mask id="path-1-outside-1_589_45" maskUnits="userSpaceOnUse" x="2" y="5" width="278" height="149" fill="black">
<rect fill="white" x="2" y="5" width="278" height="149"/>
<path d="M15.9766 15.7441C17.207 15.7441 18.3203 17.502 19.3164 21.0176H19.8438C21.8359 19.4941 24.6191 18.5859 28.1934 18.293C38.5645 18.293 45.5078 27.668 49.0234 46.418L50.3418 61.0957C50.3418 77.8535 44.3652 88.752 32.4121 93.791L27.8418 94.3184H27.666C26.377 94.3184 24.4434 93.8789 21.8652 93V93.791L22.1289 95.4609C22.1289 96.2812 21.3086 97.1016 19.668 97.9219C17.4414 97.9219 16.3281 95.5195 16.3281 90.7148C14.8047 70.1484 14.043 57.5215 14.043 52.834L14.9219 26.9941C14.9219 24.3574 14.2773 21.457 12.9883 18.293C12.9883 16.9453 13.9844 16.0957 15.9766 15.7441ZM19.3164 52.4824L20.6348 81.5742C22.0996 86.6133 24.2383 89.1328 27.0508 89.1328H29.3359C32.5 89.1328 35.9863 86.7305 39.7949 81.9258C43.1348 76.5938 44.8047 70.2949 44.8047 63.0293V58.3711C44.8047 46.6523 42.4023 36.7793 37.5977 28.752C34.7852 25.4121 32.207 23.7422 29.8633 23.7422H26.5234C22.7734 23.7422 20.6348 26.0566 20.1074 30.6855L19.3164 52.4824ZM63.877 61.623C67.1582 61.623 69.3848 64.582 70.5566 70.5C69.0332 77.1211 65.8984 80.4316 61.1523 80.4316H60.8008V80.6953C61.7383 86.0273 64.2285 88.6934 68.2715 88.6934C71.377 88.6934 73.8965 86.0273 75.8301 80.6953L77.7637 79.9043C79.0527 79.9043 79.873 80.9004 80.2246 82.8926C80.2246 86.5254 77.3828 89.9531 71.6992 93.1758L67.4805 93.9668C62.4414 93.9668 58.6621 90.3633 56.1426 83.1562C55.4395 80.2852 55.0879 77.9121 55.0879 76.0371V74.8945C55.0879 68.918 57.5781 64.582 62.5586 61.8867L63.877 61.623ZM60.625 72.6973V72.873L62.5586 74.8945C63.4375 74.8945 64.2578 73.6934 65.0195 71.291V69.8848C64.7266 68.0684 64.3457 67.1602 63.877 67.1602H63.3496C62.4707 67.1602 61.5625 69.0059 60.625 72.6973ZM85.1465 59.25C86.7871 59.25 87.9883 61.9453 88.75 67.3359C91.6211 74.7188 93.6719 79.1426 94.9023 80.6074H95.166C96.8066 66.3691 98.8281 59.25 101.23 59.25H101.582C103.164 59.8945 103.955 60.832 103.955 62.0625C102.49 64.9336 100.85 74.8066 99.0332 91.6816C97.8027 92.7949 96.9531 93.3516 96.4844 93.3516C95.0781 93.3516 93.0859 89.9238 90.5078 83.0684C85.7617 74.5137 83.0664 67.4238 82.4219 61.7988C82.4219 60.8027 83.3301 59.9531 85.1465 59.25ZM115.82 61.623C119.102 61.623 121.328 64.582 122.5 70.5C120.977 77.1211 117.842 80.4316 113.096 80.4316H112.744V80.6953C113.682 86.0273 116.172 88.6934 120.215 88.6934C123.32 88.6934 125.84 86.0273 127.773 80.6953L129.707 79.9043C130.996 79.9043 131.816 80.9004 132.168 82.8926C132.168 86.5254 129.326 89.9531 123.643 93.1758L119.424 93.9668C114.385 93.9668 110.605 90.3633 108.086 83.1562C107.383 80.2852 107.031 77.9121 107.031 76.0371V74.8945C107.031 68.918 109.521 64.582 114.502 61.8867L115.82 61.623ZM112.568 72.6973V72.873L114.502 74.8945C115.381 74.8945 116.201 73.6934 116.963 71.291V69.8848C116.67 68.0684 116.289 67.1602 115.82 67.1602H115.293C114.414 67.1602 113.506 69.0059 112.568 72.6973ZM140.605 15.1289C141.484 15.1875 142.305 15.9199 143.066 17.3262C142.656 17.9707 142.393 19.1426 142.275 20.8418L142.188 21.9844L142.715 56.6133C142.422 72.3164 142.598 83.8301 143.242 91.1543L143.418 91.8574C142.891 92.9707 142.041 93.498 140.869 93.4395C138.232 93.2637 137.178 89.6309 137.705 82.541C137.354 78.6738 137.178 60.8906 137.178 29.1914C136.826 27.2578 136.738 24.709 136.914 21.5449V21.1934C137.207 17.0332 138.438 15.0117 140.605 15.1289ZM161.084 62.6777C166.123 64.4941 168.789 70.0605 169.082 79.377V79.9043C168.848 87.6973 166.826 92.4727 163.018 94.2305L160.557 94.582C154.287 93.0586 151.152 88.3418 151.152 80.4316V80.168C151.152 71.6133 153.906 65.9004 159.414 63.0293L161.084 62.6777ZM156.338 79.377V81.3105C156.982 86.8184 158.682 89.5723 161.436 89.5723C163.018 87.8145 163.809 84.416 163.809 79.377V78.8496C163.516 72.5801 162.52 69.1523 160.82 68.5664C157.832 69.9141 156.338 73.5176 156.338 79.377ZM187.363 60.4805C193.281 60.4805 198.32 65.1973 202.48 74.6309L203.711 80.4316C203.711 87.5215 199.082 91.6816 189.824 92.9121H189.209C187.1 92.9121 185.195 92.3555 183.496 91.2422H182.617C183.496 115.5 183.936 131.789 183.936 140.109C183.408 142.16 182.471 143.186 181.123 143.186C179.248 143.186 178.311 141.691 178.311 138.703V137.561C178.311 128.537 177.988 112.805 177.344 90.3633C176.582 80.4023 176.201 72.7559 176.201 67.4238V65.5781C176.201 62.5898 177.109 61.0957 178.926 61.0957H180.156C181.211 61.7402 181.738 62.5605 181.738 63.5566C183.613 61.7402 184.99 60.832 185.869 60.832L187.363 60.4805ZM184.023 75.2461C182.969 83.5078 184.521 87.6387 188.682 87.6387H190.088C194.834 87.6387 197.617 85.4121 198.438 80.959V80.168C198.438 76.2422 196.387 72.1992 192.285 68.0391C190.586 66.5156 189.033 65.7539 187.627 65.7539C185.693 65.6367 184.492 68.8008 184.023 75.2461ZM216.367 61.623C219.648 61.623 221.875 64.582 223.047 70.5C221.523 77.1211 218.389 80.4316 213.643 80.4316H213.291V80.6953C214.229 86.0273 216.719 88.6934 220.762 88.6934C223.867 88.6934 226.387 86.0273 228.32 80.6953L230.254 79.9043C231.543 79.9043 232.363 80.9004 232.715 82.8926C232.715 86.5254 229.873 89.9531 224.189 93.1758L219.971 93.9668C214.932 93.9668 211.152 90.3633 208.633 83.1562C207.93 80.2852 207.578 77.9121 207.578 76.0371V74.8945C207.578 68.918 210.068 64.582 215.049 61.8867L216.367 61.623ZM213.115 72.6973V72.873L215.049 74.8945C215.928 74.8945 216.748 73.6934 217.51 71.291V69.8848C217.217 68.0684 216.836 67.1602 216.367 67.1602H215.84C214.961 67.1602 214.053 69.0059 213.115 72.6973ZM237.461 57.668C239.043 57.668 240.244 59.5723 241.064 63.3809H241.328C243.555 60.7441 245.957 59.4258 248.535 59.4258C252.754 60.1875 254.863 61.5059 254.863 63.3809C254.336 65.0215 253.428 65.8418 252.139 65.8418L248.799 64.7871H247.92C244.463 65.4316 242.734 72.5508 242.734 86.1445V90.2754C242.383 92.0918 241.562 93 240.273 93C238.398 93 237.461 91.8867 237.461 89.6602V79.4648C237.461 71.9648 236.523 65.4023 234.648 59.7773C235.117 58.3711 236.055 57.668 237.461 57.668ZM266.816 87.375C268.164 87.375 269.102 88.2246 269.629 89.9238C269.629 91.1543 268.604 92.2676 266.553 93.2637C265.029 93.2637 264.121 92.2383 263.828 90.1875C264.707 88.3125 265.703 87.375 266.816 87.375Z"/>
</mask>
<path d="M15.9766 15.7441C17.207 15.7441 18.3203 17.502 19.3164 21.0176H19.8438C21.8359 19.4941 24.6191 18.5859 28.1934 18.293C38.5645 18.293 45.5078 27.668 49.0234 46.418L50.3418 61.0957C50.3418 77.8535 44.3652 88.752 32.4121 93.791L27.8418 94.3184H27.666C26.377 94.3184 24.4434 93.8789 21.8652 93V93.791L22.1289 95.4609C22.1289 96.2812 21.3086 97.1016 19.668 97.9219C17.4414 97.9219 16.3281 95.5195 16.3281 90.7148C14.8047 70.1484 14.043 57.5215 14.043 52.834L14.9219 26.9941C14.9219 24.3574 14.2773 21.457 12.9883 18.293C12.9883 16.9453 13.9844 16.0957 15.9766 15.7441ZM19.3164 52.4824L20.6348 81.5742C22.0996 86.6133 24.2383 89.1328 27.0508 89.1328H29.3359C32.5 89.1328 35.9863 86.7305 39.7949 81.9258C43.1348 76.5938 44.8047 70.2949 44.8047 63.0293V58.3711C44.8047 46.6523 42.4023 36.7793 37.5977 28.752C34.7852 25.4121 32.207 23.7422 29.8633 23.7422H26.5234C22.7734 23.7422 20.6348 26.0566 20.1074 30.6855L19.3164 52.4824ZM63.877 61.623C67.1582 61.623 69.3848 64.582 70.5566 70.5C69.0332 77.1211 65.8984 80.4316 61.1523 80.4316H60.8008V80.6953C61.7383 86.0273 64.2285 88.6934 68.2715 88.6934C71.377 88.6934 73.8965 86.0273 75.8301 80.6953L77.7637 79.9043C79.0527 79.9043 79.873 80.9004 80.2246 82.8926C80.2246 86.5254 77.3828 89.9531 71.6992 93.1758L67.4805 93.9668C62.4414 93.9668 58.6621 90.3633 56.1426 83.1562C55.4395 80.2852 55.0879 77.9121 55.0879 76.0371V74.8945C55.0879 68.918 57.5781 64.582 62.5586 61.8867L63.877 61.623ZM60.625 72.6973V72.873L62.5586 74.8945C63.4375 74.8945 64.2578 73.6934 65.0195 71.291V69.8848C64.7266 68.0684 64.3457 67.1602 63.877 67.1602H63.3496C62.4707 67.1602 61.5625 69.0059 60.625 72.6973ZM85.1465 59.25C86.7871 59.25 87.9883 61.9453 88.75 67.3359C91.6211 74.7188 93.6719 79.1426 94.9023 80.6074H95.166C96.8066 66.3691 98.8281 59.25 101.23 59.25H101.582C103.164 59.8945 103.955 60.832 103.955 62.0625C102.49 64.9336 100.85 74.8066 99.0332 91.6816C97.8027 92.7949 96.9531 93.3516 96.4844 93.3516C95.0781 93.3516 93.0859 89.9238 90.5078 83.0684C85.7617 74.5137 83.0664 67.4238 82.4219 61.7988C82.4219 60.8027 83.3301 59.9531 85.1465 59.25ZM115.82 61.623C119.102 61.623 121.328 64.582 122.5 70.5C120.977 77.1211 117.842 80.4316 113.096 80.4316H112.744V80.6953C113.682 86.0273 116.172 88.6934 120.215 88.6934C123.32 88.6934 125.84 86.0273 127.773 80.6953L129.707 79.9043C130.996 79.9043 131.816 80.9004 132.168 82.8926C132.168 86.5254 129.326 89.9531 123.643 93.1758L119.424 93.9668C114.385 93.9668 110.605 90.3633 108.086 83.1562C107.383 80.2852 107.031 77.9121 107.031 76.0371V74.8945C107.031 68.918 109.521 64.582 114.502 61.8867L115.82 61.623ZM112.568 72.6973V72.873L114.502 74.8945C115.381 74.8945 116.201 73.6934 116.963 71.291V69.8848C116.67 68.0684 116.289 67.1602 115.82 67.1602H115.293C114.414 67.1602 113.506 69.0059 112.568 72.6973ZM140.605 15.1289C141.484 15.1875 142.305 15.9199 143.066 17.3262C142.656 17.9707 142.393 19.1426 142.275 20.8418L142.188 21.9844L142.715 56.6133C142.422 72.3164 142.598 83.8301 143.242 91.1543L143.418 91.8574C142.891 92.9707 142.041 93.498 140.869 93.4395C138.232 93.2637 137.178 89.6309 137.705 82.541C137.354 78.6738 137.178 60.8906 137.178 29.1914C136.826 27.2578 136.738 24.709 136.914 21.5449V21.1934C137.207 17.0332 138.438 15.0117 140.605 15.1289ZM161.084 62.6777C166.123 64.4941 168.789 70.0605 169.082 79.377V79.9043C168.848 87.6973 166.826 92.4727 163.018 94.2305L160.557 94.582C154.287 93.0586 151.152 88.3418 151.152 80.4316V80.168C151.152 71.6133 153.906 65.9004 159.414 63.0293L161.084 62.6777ZM156.338 79.377V81.3105C156.982 86.8184 158.682 89.5723 161.436 89.5723C163.018 87.8145 163.809 84.416 163.809 79.377V78.8496C163.516 72.5801 162.52 69.1523 160.82 68.5664C157.832 69.9141 156.338 73.5176 156.338 79.377ZM187.363 60.4805C193.281 60.4805 198.32 65.1973 202.48 74.6309L203.711 80.4316C203.711 87.5215 199.082 91.6816 189.824 92.9121H189.209C187.1 92.9121 185.195 92.3555 183.496 91.2422H182.617C183.496 115.5 183.936 131.789 183.936 140.109C183.408 142.16 182.471 143.186 181.123 143.186C179.248 143.186 178.311 141.691 178.311 138.703V137.561C178.311 128.537 177.988 112.805 177.344 90.3633C176.582 80.4023 176.201 72.7559 176.201 67.4238V65.5781C176.201 62.5898 177.109 61.0957 178.926 61.0957H180.156C181.211 61.7402 181.738 62.5605 181.738 63.5566C183.613 61.7402 184.99 60.832 185.869 60.832L187.363 60.4805ZM184.023 75.2461C182.969 83.5078 184.521 87.6387 188.682 87.6387H190.088C194.834 87.6387 197.617 85.4121 198.438 80.959V80.168C198.438 76.2422 196.387 72.1992 192.285 68.0391C190.586 66.5156 189.033 65.7539 187.627 65.7539C185.693 65.6367 184.492 68.8008 184.023 75.2461ZM216.367 61.623C219.648 61.623 221.875 64.582 223.047 70.5C221.523 77.1211 218.389 80.4316 213.643 80.4316H213.291V80.6953C214.229 86.0273 216.719 88.6934 220.762 88.6934C223.867 88.6934 226.387 86.0273 228.32 80.6953L230.254 79.9043C231.543 79.9043 232.363 80.9004 232.715 82.8926C232.715 86.5254 229.873 89.9531 224.189 93.1758L219.971 93.9668C214.932 93.9668 211.152 90.3633 208.633 83.1562C207.93 80.2852 207.578 77.9121 207.578 76.0371V74.8945C207.578 68.918 210.068 64.582 215.049 61.8867L216.367 61.623ZM213.115 72.6973V72.873L215.049 74.8945C215.928 74.8945 216.748 73.6934 217.51 71.291V69.8848C217.217 68.0684 216.836 67.1602 216.367 67.1602H215.84C214.961 67.1602 214.053 69.0059 213.115 72.6973ZM237.461 57.668C239.043 57.668 240.244 59.5723 241.064 63.3809H241.328C243.555 60.7441 245.957 59.4258 248.535 59.4258C252.754 60.1875 254.863 61.5059 254.863 63.3809C254.336 65.0215 253.428 65.8418 252.139 65.8418L248.799 64.7871H247.92C244.463 65.4316 242.734 72.5508 242.734 86.1445V90.2754C242.383 92.0918 241.562 93 240.273 93C238.398 93 237.461 91.8867 237.461 89.6602V79.4648C237.461 71.9648 236.523 65.4023 234.648 59.7773C235.117 58.3711 236.055 57.668 237.461 57.668ZM266.816 87.375C268.164 87.375 269.102 88.2246 269.629 89.9238C269.629 91.1543 268.604 92.2676 266.553 93.2637C265.029 93.2637 264.121 92.2383 263.828 90.1875C264.707 88.3125 265.703 87.375 266.816 87.375Z" fill="#272727"/>
<path d="M15.9766 15.7441V5.74414H15.101L14.2387 5.89631L15.9766 15.7441ZM19.3164 21.0176L9.69514 23.7436L11.7561 31.0176H19.3164V21.0176ZM19.8438 21.0176V31.0176H23.2291L25.9183 28.9612L19.8438 21.0176ZM28.1934 18.293V8.29297H27.7842L27.3764 8.32639L28.1934 18.293ZM49.0234 46.418L58.9833 45.5234L58.9405 45.0461L58.8522 44.5751L49.0234 46.418ZM50.3418 61.0957H60.3418V60.6475L60.3017 60.2011L50.3418 61.0957ZM32.4121 93.791L33.5584 103.725L34.979 103.561L36.2967 103.006L32.4121 93.791ZM27.8418 94.3184V104.318H28.4168L28.988 104.252L27.8418 94.3184ZM21.8652 93L25.092 83.5349L11.8652 79.0258V93H21.8652ZM21.8652 93.791H11.8652V94.5756L11.9876 95.3506L21.8652 93.791ZM22.1289 95.4609H32.1289V94.6763L32.0065 93.9013L22.1289 95.4609ZM19.668 97.9219V107.922H22.0286L24.1401 106.866L19.668 97.9219ZM16.3281 90.7148H26.3281V90.345L26.3008 89.9761L16.3281 90.7148ZM14.043 52.834L4.04875 52.494L4.04297 52.664V52.834H14.043ZM14.9219 26.9941L24.9161 27.3341L24.9219 27.1642V26.9941H14.9219ZM12.9883 18.293H2.98828V20.2518L3.72736 22.0659L12.9883 18.293ZM19.3164 52.4824L9.32298 52.1198L9.30819 52.5275L9.32666 52.9351L19.3164 52.4824ZM20.6348 81.5742L10.645 82.0269L10.6991 83.2194L11.0323 84.3656L20.6348 81.5742ZM39.7949 81.9258L47.6315 88.1377L47.9756 87.7036L48.2697 87.2341L39.7949 81.9258ZM37.5977 28.752L46.1781 23.6162L45.765 22.9259L45.2468 22.3106L37.5977 28.752ZM20.1074 30.6855L10.1717 29.5536L10.128 29.9371L10.114 30.3229L20.1074 30.6855ZM15.9766 25.7441C13.731 25.7441 11.9755 24.8973 10.8774 24.0737C9.88521 23.3296 9.40561 22.6016 9.28618 22.413C9.07977 22.0871 9.29338 22.3256 9.69514 23.7436L28.9377 18.2916C28.3433 16.1939 27.5023 13.7957 26.1826 11.712C25.0775 9.9671 21.876 5.74414 15.9766 5.74414V25.7441ZM19.3164 31.0176H19.8438V11.0176H19.3164V31.0176ZM25.9183 28.9612C25.866 29.0011 26.5644 28.46 29.0103 28.2595L27.3764 8.32639C22.6739 8.71184 17.8058 9.9872 13.7692 13.074L25.9183 28.9612ZM28.1934 28.293C29.7813 28.293 31.2868 28.7694 33.1432 31.2759C35.3176 34.2118 37.5595 39.5395 39.1947 48.2609L58.8522 44.5751C56.9718 34.5465 53.9842 25.8116 49.2152 19.3725C44.1283 12.5041 36.9765 8.29297 28.1934 8.29297V28.293ZM39.0635 47.3126L40.3819 61.9903L60.3017 60.2011L58.9833 45.5234L39.0635 47.3126ZM40.3418 61.0957C40.3418 68.355 39.0387 73.4783 37.0913 77.0296C35.2373 80.4103 32.5237 82.8917 28.5275 84.5764L36.2967 103.006C44.2537 99.6513 50.5049 94.1639 54.6275 86.6462C58.6566 79.299 60.3418 70.5942 60.3418 61.0957H40.3418ZM31.2659 83.8569L26.6956 84.3843L28.988 104.252L33.5584 103.725L31.2659 83.8569ZM27.8418 84.3184H27.666V104.318H27.8418V84.3184ZM27.666 84.3184C28.0525 84.3184 28.0491 84.3701 27.4652 84.2374C26.9394 84.1179 26.1623 83.8998 25.092 83.5349L18.6385 102.465C21.3635 103.394 24.6225 104.318 27.666 104.318V84.3184ZM11.8652 93V93.791H31.8652V93H11.8652ZM11.9876 95.3506L12.2513 97.0206L32.0065 93.9013L31.7429 92.2314L11.9876 95.3506ZM12.1289 95.4609C12.1289 92.2835 13.7628 90.3002 14.4426 89.6203C15.102 88.961 15.5456 88.8027 15.1958 88.9776L24.1401 106.866C25.431 106.221 27.1051 105.242 28.5847 103.762C30.0849 102.262 32.1289 99.4587 32.1289 95.4609H12.1289ZM19.668 87.9219C21.0247 87.9219 22.6202 88.3278 24.0461 89.3534C25.3706 90.3061 25.994 91.3929 26.2362 91.9155C26.4687 92.4173 26.4655 92.6378 26.4197 92.3413C26.3785 92.0751 26.3281 91.5553 26.3281 90.7148H6.32812C6.32812 93.5744 6.61005 97.1312 8.08998 100.325C8.88881 102.049 10.208 104.036 12.3675 105.589C14.6283 107.216 17.198 107.922 19.668 107.922V87.9219ZM26.3008 89.9761C24.7654 69.2483 24.043 57.0621 24.043 52.834H4.04297C4.04297 57.9808 4.84397 71.0486 6.35545 91.4536L26.3008 89.9761ZM24.0372 53.1739L24.9161 27.3341L4.92765 26.6542L4.04875 52.494L24.0372 53.1739ZM24.9219 26.9941C24.9219 22.7431 23.8887 18.5442 22.2492 14.52L3.72736 22.0659C4.666 24.3699 4.92188 25.9717 4.92188 26.9941H24.9219ZM22.9883 18.293C22.9883 19.2125 22.8119 20.3376 22.2829 21.5045C21.7503 22.6792 20.9967 23.595 20.2248 24.2534C19.486 24.8835 18.8074 25.2154 18.3988 25.3797C17.9912 25.5435 17.7332 25.5887 17.7144 25.592L14.2387 5.89631C12.3643 6.22708 9.64641 6.98917 7.24589 9.03668C4.44628 11.4246 2.98828 14.7902 2.98828 18.293H22.9883ZM9.32666 52.9351L10.645 82.0269L30.6245 81.1215L29.3062 52.0297L9.32666 52.9351ZM11.0323 84.3656C11.9524 87.5308 13.3539 90.9345 15.7136 93.7145C18.3148 96.7789 22.1836 99.1328 27.0508 99.1328V79.1328C27.9035 79.1328 28.7988 79.3387 29.6031 79.748C30.3669 80.1367 30.798 80.5796 30.9612 80.7718C31.1114 80.9488 31.0588 80.9393 30.8864 80.5777C30.718 80.2245 30.4887 79.6477 30.2373 78.7828L11.0323 84.3656ZM27.0508 99.1328H29.3359V79.1328H27.0508V99.1328ZM29.3359 99.1328C37.4536 99.1328 43.5515 93.2848 47.6315 88.1377L31.9583 75.7139C30.4202 77.6543 29.2994 78.649 28.6496 79.0967C28.021 79.5299 28.309 79.1328 29.3359 79.1328V99.1328ZM48.2697 87.2341C52.7527 80.077 54.8047 71.8759 54.8047 63.0293H34.8047C34.8047 68.714 33.5168 73.1105 31.3202 76.6174L48.2697 87.2341ZM54.8047 63.0293V58.3711H34.8047V63.0293H54.8047ZM54.8047 58.3711C54.8047 45.2962 52.1195 33.5427 46.1781 23.6162L29.0172 33.8877C32.6852 40.0159 34.8047 48.0085 34.8047 58.3711H54.8047ZM45.2468 22.3106C42.047 18.5109 36.8927 13.7422 29.8633 13.7422V33.7422C28.5911 33.7422 27.954 33.2814 28.1182 33.3878C28.1913 33.4351 28.3955 33.5794 28.7247 33.8853C29.0514 34.1889 29.4609 34.6142 29.9485 35.1933L45.2468 22.3106ZM29.8633 13.7422H26.5234V33.7422H29.8633V13.7422ZM26.5234 13.7422C22.4352 13.7422 18.0831 15.0978 14.7625 18.6914C11.7079 21.997 10.5663 26.0902 10.1717 29.5536L30.0432 31.8175C30.1759 30.652 30.3673 31.2735 29.4514 32.2647C28.9588 32.7978 28.3324 33.2232 27.671 33.4831C27.0476 33.7281 26.6106 33.7422 26.5234 33.7422V13.7422ZM10.114 30.3229L9.32298 52.1198L29.3098 52.8451L30.1008 31.0482L10.114 30.3229ZM63.877 61.623V51.623H62.8868L61.9158 51.8172L63.877 61.623ZM70.5566 70.5L80.302 72.7423L80.7819 70.6568L80.3662 68.5575L70.5566 70.5ZM60.8008 80.4316V70.4316H50.8008V80.4316H60.8008ZM60.8008 80.6953H50.8008V81.5677L50.9519 82.427L60.8008 80.6953ZM75.8301 80.6953L72.0437 71.4398L67.9405 73.1184L66.4291 77.2862L75.8301 80.6953ZM77.7637 79.9043V69.9043H75.7973L73.9773 70.6488L77.7637 79.9043ZM80.2246 82.8926H90.2246V82.017L90.0724 81.1547L80.2246 82.8926ZM71.6992 93.1758L73.5421 103.005L75.1811 102.697L76.6316 101.875L71.6992 93.1758ZM67.4805 93.9668V103.967H68.4099L69.3234 103.796L67.4805 93.9668ZM56.1426 83.1562L46.4296 85.5349L46.544 86.0022L46.7028 86.4563L56.1426 83.1562ZM62.5586 61.8867L60.5974 52.0809L59.1222 52.376L57.7991 53.092L62.5586 61.8867ZM60.625 72.6973L50.9327 70.2357L50.625 71.4473V72.6973H60.625ZM60.625 72.873H50.625V76.8856L53.3986 79.7853L60.625 72.873ZM62.5586 74.8945L55.3322 81.8068L58.2857 84.8945H62.5586V74.8945ZM65.0195 71.291L74.5518 74.3135L75.0195 72.8384V71.291H65.0195ZM65.0195 69.8848H75.0195V69.0835L74.8919 68.2924L65.0195 69.8848ZM63.877 71.623C63.1303 71.623 62.2469 71.438 61.4075 70.9871C60.6065 70.5567 60.1725 70.0612 60.0173 69.8549C59.8804 69.673 59.9605 69.7203 60.141 70.1917C60.3173 70.6524 60.5365 71.3789 60.7471 72.4425L80.3662 68.5575C79.6504 64.9429 78.4121 61.0374 75.9983 57.8296C73.2739 54.2091 69.095 51.623 63.877 51.623V71.623ZM60.8113 68.2577C60.5533 69.3788 60.2784 70.1295 60.0583 70.5987C59.8402 71.0636 59.7199 71.1595 59.8018 71.0731C59.9079 70.961 60.1581 70.7505 60.5369 70.5913C60.9068 70.4359 61.156 70.4316 61.1523 70.4316V90.4316C66.1455 90.4316 70.7829 88.5643 74.3242 84.8244C77.5769 81.3893 79.3226 76.9991 80.302 72.7423L60.8113 68.2577ZM61.1523 70.4316H60.8008V90.4316H61.1523V70.4316ZM50.8008 80.4316V80.6953H70.8008V80.4316H50.8008ZM50.9519 82.427C51.6035 86.1332 53.0009 90.2409 56.0637 93.5199C59.4155 97.1082 63.8119 98.6934 68.2715 98.6934V78.6934C68.3689 78.6934 68.7637 78.7123 69.3086 78.9347C69.8766 79.1665 70.3496 79.5147 70.6795 79.8678C70.9829 80.1926 71.0445 80.3906 70.9865 80.2553C70.9246 80.1108 70.7816 79.7139 70.6497 78.9636L50.9519 82.427ZM68.2715 98.6934C78.3821 98.6934 83.1388 89.8738 85.231 84.1044L66.4291 77.2862C66.0866 78.2306 65.777 78.8916 65.533 79.3299C65.2856 79.7741 65.1607 79.8904 65.2223 79.8253C65.2952 79.7482 65.6093 79.4408 66.2078 79.1571C66.8402 78.8573 67.563 78.6934 68.2715 78.6934V98.6934ZM79.6164 89.9508L81.55 89.1598L73.9773 70.6488L72.0437 71.4398L79.6164 89.9508ZM77.7637 89.9043C76.7663 89.9043 75.579 89.7033 74.3725 89.1336C73.1663 88.5639 72.2583 87.7757 71.6264 87.0084C71.0221 86.2746 70.7115 85.614 70.5633 85.2361C70.486 85.0388 70.4398 84.8853 70.4139 84.789C70.3878 84.6921 70.3778 84.6365 70.3768 84.6304L90.0724 81.1547C89.7515 79.3362 89.0234 76.6723 87.065 74.2943C84.7575 71.4924 81.3999 69.9043 77.7637 69.9043V89.9043ZM70.2246 82.8926C70.2246 81.8867 70.6755 81.4671 70.3949 81.8056C70.0199 82.2579 69.002 83.2095 66.7668 84.4768L76.6316 101.875C82.9343 98.301 90.2246 92.2976 90.2246 82.8926H70.2246ZM69.8563 83.3471L65.6376 84.1381L69.3234 103.796L73.5421 103.005L69.8563 83.3471ZM67.4805 83.9668C67.4417 83.9668 67.553 83.9659 67.7201 84.0342C67.8808 84.0999 67.8955 84.1488 67.7675 84.0268C67.4303 83.7053 66.5431 82.6044 65.5824 79.8562L46.7028 86.4563C49.7699 95.2296 56.0782 103.967 67.4805 103.967V83.9668ZM65.8556 80.7776C65.2472 78.2935 65.0879 76.7886 65.0879 76.0371H45.0879C45.0879 79.0356 45.6317 82.2768 46.4296 85.5349L65.8556 80.7776ZM65.0879 76.0371V74.8945H45.0879V76.0371H65.0879ZM65.0879 74.8945C65.0879 73.312 65.4082 72.5217 65.6272 72.1405C65.8296 71.788 66.2388 71.2655 67.3181 70.6814L57.7991 53.092C53.8979 55.2032 50.5718 58.1963 48.284 62.1798C46.0127 66.1345 45.0879 70.5005 45.0879 74.8945H65.0879ZM64.5198 71.6925L65.8381 71.4289L61.9158 51.8172L60.5974 52.0809L64.5198 71.6925ZM50.625 72.6973V72.873H70.625V72.6973H50.625ZM53.3986 79.7853L55.3322 81.8068L69.785 67.9823L67.8514 65.9608L53.3986 79.7853ZM62.5586 84.8945C68.0104 84.8945 71.0508 81.1564 72.091 79.6333C73.3107 77.8473 74.0582 75.8704 74.5518 74.3135L55.4872 68.2686C55.2192 69.114 55.1756 68.9389 55.575 68.354C55.7949 68.032 57.9857 64.8945 62.5586 64.8945V84.8945ZM75.0195 71.291V69.8848H55.0195V71.291H75.0195ZM74.8919 68.2924C74.7081 67.1529 74.3915 65.5368 73.7361 63.974C73.4182 63.2159 72.7639 61.8342 71.5148 60.4989C70.1636 59.0545 67.5835 57.1602 63.877 57.1602V77.1602C60.4048 77.1602 58.0481 75.3793 56.9093 74.162C55.8726 73.0537 55.4197 72.0126 55.2922 71.7086C55.0177 71.054 55.0379 70.8002 55.1471 71.4771L74.8919 68.2924ZM63.877 57.1602H63.3496V77.1602H63.877V57.1602ZM63.3496 57.1602C59.3823 57.1602 56.7355 59.2748 55.5008 60.5501C54.2508 61.8411 53.4823 63.2238 53.0367 64.1294C52.1181 65.9962 51.4543 68.1821 50.9327 70.2357L70.3173 75.1588C70.7332 73.5211 70.9923 72.9383 70.9819 72.9595C70.96 73.004 70.88 73.1627 70.7299 73.3934C70.5861 73.6143 70.3091 74.008 69.8691 74.4623C69.0811 75.2762 66.8774 77.1602 63.3496 77.1602V57.1602ZM85.1465 59.25V49.25H83.2785L81.5365 49.9243L85.1465 59.25ZM88.75 67.3359L78.8484 68.7351L79.0103 69.8814L79.43 70.9604L88.75 67.3359ZM94.9023 80.6074L87.2453 87.0393L90.2425 90.6074H94.9023V80.6074ZM95.166 80.6074V90.6074H104.08L105.1 81.7521L95.166 80.6074ZM101.582 59.25L105.355 49.9891L103.541 49.25H101.582V59.25ZM103.955 62.0625L112.863 66.6072L113.955 64.4661V62.0625H103.955ZM99.0332 91.6816L105.742 99.097L108.568 96.5405L108.976 92.7518L99.0332 91.6816ZM90.5078 83.0684L99.8678 79.5484L99.609 78.8601L99.2522 78.217L90.5078 83.0684ZM82.4219 61.7988H72.4219V62.3699L72.4869 62.9372L82.4219 61.7988ZM85.1465 69.25C82.5132 69.25 80.533 68.0733 79.413 67.011C78.9046 66.5288 78.5881 66.0926 78.4168 65.8284C78.2428 65.5601 78.1604 65.3794 78.1438 65.3421C78.1212 65.2914 78.2228 65.5156 78.3785 66.1574C78.5278 66.7722 78.6905 67.618 78.8484 68.7351L98.6516 65.9368C98.2306 62.9572 97.5858 59.8351 96.4118 57.2009C95.5495 55.2658 92.4008 49.25 85.1465 49.25V69.25ZM79.43 70.9604C80.9012 74.7435 82.2177 77.9135 83.3689 80.3967C84.3662 82.5482 85.6698 85.1637 87.2453 87.0393L102.559 74.1755C102.856 74.528 102.858 74.6184 102.561 74.0865C102.312 73.6386 101.964 72.956 101.514 71.9851C100.614 70.0445 99.4699 67.3112 98.07 63.7115L79.43 70.9604ZM94.9023 90.6074H95.166V70.6074H94.9023V90.6074ZM105.1 81.7521C105.905 74.7709 106.749 70.081 107.532 67.3209C107.946 65.8647 108.171 65.5773 107.994 65.8628C107.892 66.026 107.431 66.7491 106.455 67.5015C105.377 68.3334 103.58 69.25 101.23 69.25V49.25C95.2047 49.25 92.0214 53.6734 91.0064 55.3069C89.723 57.3722 88.8901 59.7544 88.2929 61.8578C87.0551 66.2169 86.0679 72.2057 85.2317 79.4627L105.1 81.7521ZM101.23 69.25H101.582V49.25H101.23V69.25ZM97.8091 68.5109C97.6574 68.4491 96.6952 68.0424 95.7189 66.8852C94.587 65.5438 93.9551 63.7995 93.9551 62.0625H113.955C113.955 59.095 112.928 56.2668 111.005 53.9878C109.237 51.8932 107.089 50.6954 105.355 49.9891L97.8091 68.5109ZM95.0475 57.5178C94.1267 59.3226 93.5317 61.4215 93.1078 63.1612C92.639 65.085 92.1933 67.3811 91.7612 69.9814C90.8954 75.1918 90.0074 82.0946 89.0906 90.6114L108.976 92.7518C109.875 84.3937 110.716 77.9225 111.491 73.2598C111.879 70.9236 112.232 69.1584 112.539 67.8962C112.892 66.4498 113.051 66.238 112.863 66.6072L95.0475 57.5178ZM92.3241 84.2663C91.8851 84.6634 91.7997 84.696 91.9929 84.5695C92.0931 84.5038 92.4511 84.2739 93.0176 84.0347C93.5005 83.8308 94.7517 83.3516 96.4844 83.3516V103.352C99.9072 103.352 102.406 101.658 102.953 101.299C103.996 100.615 104.951 99.8131 105.742 99.097L92.3241 84.2663ZM96.4844 83.3516C98.3844 83.3516 99.8552 83.9356 100.761 84.4357C101.641 84.921 102.187 85.4318 102.421 85.6682C102.853 86.1042 102.888 86.2836 102.581 85.7558C102.007 84.7677 101.096 82.8132 99.8678 79.5484L81.1478 86.5884C82.4981 90.179 83.8718 93.3661 85.2897 95.8057C85.9791 96.9918 86.9366 98.4566 88.2185 99.7495C89.2642 100.804 92.0954 103.352 96.4844 103.352V83.3516ZM99.2522 78.217C94.7469 70.0963 92.781 64.3617 92.3569 60.6604L72.4869 62.9372C73.3518 70.486 76.7766 78.931 81.7634 87.9197L99.2522 78.217ZM92.4219 61.7988C92.4219 64.7263 90.9653 66.7531 89.9346 67.7173C89.0773 68.5192 88.4411 68.6977 88.7564 68.5757L81.5365 49.9243C80.0354 50.5054 78.0369 51.4602 76.2715 53.1118C74.3326 54.9256 72.4219 57.8752 72.4219 61.7988H92.4219ZM115.82 61.623V51.623H114.83L113.859 51.8172L115.82 61.623ZM122.5 70.5L132.245 72.7423L132.725 70.6568L132.31 68.5575L122.5 70.5ZM112.744 80.4316V70.4316H102.744V80.4316H112.744ZM112.744 80.6953H102.744V81.5677L102.895 82.427L112.744 80.6953ZM127.773 80.6953L123.987 71.4398L119.884 73.1184L118.372 77.2862L127.773 80.6953ZM129.707 79.9043V69.9043H127.741L125.921 70.6488L129.707 79.9043ZM132.168 82.8926H142.168V82.017L142.016 81.1547L132.168 82.8926ZM123.643 93.1758L125.485 103.005L127.124 102.697L128.575 101.875L123.643 93.1758ZM119.424 93.9668V103.967H120.353L121.267 103.796L119.424 93.9668ZM108.086 83.1562L98.373 85.5349L98.4874 86.0022L98.6462 86.4563L108.086 83.1562ZM114.502 61.8867L112.541 52.0809L111.066 52.376L109.742 53.092L114.502 61.8867ZM112.568 72.6973L102.876 70.2357L102.568 71.4473V72.6973H112.568ZM112.568 72.873H102.568V76.8856L105.342 79.7853L112.568 72.873ZM114.502 74.8945L107.276 81.8068L110.229 84.8945H114.502V74.8945ZM116.963 71.291L126.495 74.3135L126.963 72.8384V71.291H116.963ZM116.963 69.8848H126.963V69.0835L126.835 68.2924L116.963 69.8848ZM115.82 71.623C115.074 71.623 114.19 71.438 113.351 70.9871C112.55 70.5567 112.116 70.0612 111.961 69.8549C111.824 69.673 111.904 69.7203 112.084 70.1917C112.261 70.6524 112.48 71.3789 112.69 72.4425L132.31 68.5575C131.594 64.9429 130.355 61.0374 127.942 57.8296C125.217 54.2091 121.038 51.623 115.82 51.623V71.623ZM112.755 68.2577C112.497 69.3788 112.222 70.1295 112.002 70.5987C111.784 71.0636 111.663 71.1595 111.745 71.0731C111.851 70.961 112.101 70.7505 112.48 70.5913C112.85 70.4359 113.099 70.4316 113.096 70.4316V90.4316C118.089 90.4316 122.726 88.5643 126.268 84.8244C129.52 81.3893 131.266 76.9991 132.245 72.7423L112.755 68.2577ZM113.096 70.4316H112.744V90.4316H113.096V70.4316ZM102.744 80.4316V80.6953H122.744V80.4316H102.744ZM102.895 82.427C103.547 86.1332 104.944 90.2409 108.007 93.5199C111.359 97.1082 115.755 98.6934 120.215 98.6934V78.6934C120.312 78.6934 120.707 78.7123 121.252 78.9347C121.82 79.1665 122.293 79.5147 122.623 79.8678C122.926 80.1926 122.988 80.3906 122.93 80.2553C122.868 80.1108 122.725 79.7139 122.593 78.9636L102.895 82.427ZM120.215 98.6934C130.325 98.6934 135.082 89.8738 137.174 84.1044L118.372 77.2862C118.03 78.2306 117.72 78.8916 117.476 79.3299C117.229 79.7741 117.104 79.8904 117.166 79.8253C117.239 79.7482 117.553 79.4408 118.151 79.1571C118.784 78.8573 119.506 78.6934 120.215 78.6934V98.6934ZM131.56 89.9508L133.493 89.1598L125.921 70.6488L123.987 71.4398L131.56 89.9508ZM129.707 89.9043C128.71 89.9043 127.522 89.7033 126.316 89.1336C125.11 88.5639 124.202 87.7757 123.57 87.0084C122.965 86.2746 122.655 85.614 122.507 85.2361C122.429 85.0388 122.383 84.8853 122.357 84.789C122.331 84.6921 122.321 84.6365 122.32 84.6304L142.016 81.1547C141.695 79.3362 140.967 76.6723 139.008 74.2943C136.701 71.4924 133.343 69.9043 129.707 69.9043V89.9043ZM122.168 82.8926C122.168 81.8867 122.619 81.4671 122.338 81.8056C121.963 82.2579 120.945 83.2095 118.71 84.4768L128.575 101.875C134.878 98.301 142.168 92.2976 142.168 82.8926H122.168ZM121.8 83.3471L117.581 84.1381L121.267 103.796L125.485 103.005L121.8 83.3471ZM119.424 83.9668C119.385 83.9668 119.496 83.9659 119.663 84.0342C119.824 84.0999 119.839 84.1488 119.711 84.0268C119.374 83.7053 118.486 82.6044 117.526 79.8562L98.6462 86.4563C101.713 95.2296 108.022 103.967 119.424 103.967V83.9668ZM117.799 80.7776C117.191 78.2935 117.031 76.7886 117.031 76.0371H97.0312C97.0312 79.0356 97.575 82.2768 98.373 85.5349L117.799 80.7776ZM117.031 76.0371V74.8945H97.0312V76.0371H117.031ZM117.031 74.8945C117.031 73.312 117.352 72.5217 117.571 72.1405C117.773 71.788 118.182 71.2655 119.261 70.6814L109.742 53.092C105.841 55.2032 102.515 58.1963 100.227 62.1798C97.9561 66.1345 97.0312 70.5005 97.0312 74.8945H117.031ZM116.463 71.6925L117.781 71.4289L113.859 51.8172L112.541 52.0809L116.463 71.6925ZM102.568 72.6973V72.873H122.568V72.6973H102.568ZM105.342 79.7853L107.276 81.8068L121.728 67.9823L119.795 65.9608L105.342 79.7853ZM114.502 84.8945C119.954 84.8945 122.994 81.1564 124.034 79.6333C125.254 77.8473 126.002 75.8704 126.495 74.3135L107.431 68.2686C107.163 69.114 107.119 68.9389 107.518 68.354C107.738 68.032 109.929 64.8945 114.502 64.8945V84.8945ZM126.963 71.291V69.8848H106.963V71.291H126.963ZM126.835 68.2924C126.652 67.1529 126.335 65.5368 125.679 63.974C125.362 63.2159 124.707 61.8342 123.458 60.4989C122.107 59.0545 119.527 57.1602 115.82 57.1602V77.1602C112.348 77.1602 109.991 75.3793 108.853 74.162C107.816 73.0537 107.363 72.0126 107.236 71.7086C106.961 71.054 106.981 70.8002 107.09 71.4771L126.835 68.2924ZM115.82 57.1602H115.293V77.1602H115.82V57.1602ZM115.293 57.1602C111.326 57.1602 108.679 59.2748 107.444 60.5501C106.194 61.8411 105.426 63.2238 104.98 64.1294C104.061 65.9962 103.398 68.1821 102.876 70.2357L122.261 75.1588C122.677 73.5211 122.936 72.9383 122.925 72.9595C122.903 73.004 122.823 73.1627 122.673 73.3934C122.529 73.6143 122.252 74.008 121.812 74.4623C121.024 75.2762 118.821 77.1602 115.293 77.1602V57.1602ZM140.605 15.1289L141.271 5.15105L141.208 5.14688L141.145 5.14348L140.605 15.1289ZM143.066 17.3262L151.503 22.6949L154.66 17.7339L151.859 12.5633L143.066 17.3262ZM142.275 20.8418L152.246 21.6088L152.249 21.5693L152.252 21.5298L142.275 20.8418ZM142.188 21.9844L132.217 21.2174L132.182 21.6764L132.189 22.1366L142.188 21.9844ZM142.715 56.6133L152.713 56.7998L152.716 56.6304L152.714 56.461L142.715 56.6133ZM143.242 91.1543L133.281 92.0309L133.35 92.8155L133.541 93.5797L143.242 91.1543ZM143.418 91.8574L152.455 96.1383L153.987 92.904L153.119 89.4321L143.418 91.8574ZM140.869 93.4395L140.204 103.417L140.287 103.423L140.37 103.427L140.869 93.4395ZM137.705 82.541L147.678 83.2828L147.739 82.4587L147.664 81.6357L137.705 82.541ZM137.178 29.1914H147.178V28.2897L147.016 27.4026L137.178 29.1914ZM136.914 21.5449L146.899 22.0996L146.914 21.8225V21.5449H136.914ZM136.914 21.1934L126.939 20.4909L126.914 20.8417V21.1934H136.914ZM139.94 25.1068C137.652 24.9542 136.05 23.9231 135.22 23.1815C134.473 22.5147 134.215 21.9814 134.273 22.089L151.859 12.5633C150.771 10.5546 147.626 5.57471 141.271 5.15105L139.94 25.1068ZM134.63 11.9574C132.748 14.9151 132.423 18.3635 132.299 20.1538L152.252 21.5298C152.289 20.9961 152.332 20.8162 152.317 20.8836C152.307 20.9276 152.265 21.1097 152.162 21.3865C152.063 21.6541 151.864 22.1273 151.503 22.6949L134.63 11.9574ZM132.305 20.0748L132.217 21.2174L152.158 22.7513L152.246 21.6088L132.305 20.0748ZM132.189 22.1366L132.716 56.7655L152.714 56.461L152.186 21.8321L132.189 22.1366ZM132.717 56.4267C132.423 72.1805 132.587 84.1431 133.281 92.0309L153.204 90.2777C152.609 83.5171 152.421 72.4524 152.713 56.7998L132.717 56.4267ZM133.541 93.5797L133.717 94.2828L153.119 89.4321L152.944 88.7289L133.541 93.5797ZM134.381 87.5766C134.749 86.7996 135.56 85.5545 137.112 84.5915C138.699 83.6065 140.285 83.3977 141.369 83.4519L140.37 103.427C142.626 103.54 145.222 103.097 147.659 101.584C150.06 100.094 151.56 98.0285 152.455 96.1383L134.381 87.5766ZM141.534 83.4616C142.346 83.5157 143.253 83.7178 144.164 84.1406C145.074 84.5631 145.81 85.1229 146.369 85.6997C147.424 86.7883 147.694 87.762 147.704 87.7949C147.727 87.8738 147.636 87.5771 147.594 86.719C147.554 85.8966 147.567 84.7678 147.678 83.2828L127.733 81.7993C127.444 85.6771 127.461 89.8032 128.497 93.3711C129.034 95.2204 130.03 97.5784 132.008 99.6192C134.185 101.866 137.064 103.208 140.204 103.417L141.534 83.4616ZM147.664 81.6357C147.366 78.3565 147.178 61.2462 147.178 29.1914H127.178C127.178 60.5351 127.341 78.9912 127.746 83.4464L147.664 81.6357ZM147.016 27.4026C146.864 26.5648 146.743 24.8944 146.899 22.0996L126.929 20.9902C126.733 24.5236 126.788 27.9508 127.339 30.9803L147.016 27.4026ZM146.914 21.5449V21.1934H126.914V21.5449H146.914ZM146.889 21.8958C146.934 21.2616 147 20.9453 147.019 20.8671C147.044 20.7658 146.968 21.1499 146.599 21.7566C146.203 22.4064 145.411 23.3997 144.044 24.1658C142.63 24.958 141.192 25.1752 140.066 25.1143L141.145 5.14348C138.935 5.024 136.53 5.44996 134.267 6.71824C132.05 7.96046 130.525 9.69714 129.515 11.3577C127.658 14.4073 127.124 17.8603 126.939 20.4909L146.889 21.8958ZM161.084 62.6777L164.475 53.2703L161.803 52.3071L159.024 52.8922L161.084 62.6777ZM169.082 79.377H179.082V79.2198L179.077 79.0626L169.082 79.377ZM169.082 79.9043L179.078 80.2049L179.082 80.0546V79.9043H169.082ZM163.018 94.2305L164.432 104.13L165.88 103.923L167.208 103.31L163.018 94.2305ZM160.557 94.582L158.195 104.299L160.066 104.754L161.971 104.482L160.557 94.582ZM159.414 63.0293L157.354 53.2438L156.01 53.5268L154.792 54.1618L159.414 63.0293ZM156.338 81.3105H146.338V81.8937L146.406 82.4728L156.338 81.3105ZM161.436 89.5723V99.5723H165.889L168.868 96.2619L161.436 89.5723ZM163.809 78.8496H173.809V78.6161L173.798 78.3828L163.809 78.8496ZM160.82 68.5664L164.08 59.1127L160.328 57.8187L156.709 59.4505L160.82 68.5664ZM157.693 72.0852C157.362 71.9659 157.459 71.7305 157.844 72.5344C158.351 73.5925 158.964 75.7797 159.087 79.6913L179.077 79.0626C178.759 68.9449 175.742 57.3315 164.475 53.2703L157.693 72.0852ZM159.082 79.377V79.9043H179.082V79.377H159.082ZM159.087 79.6037C158.99 82.8244 158.53 84.6078 158.181 85.4323C157.901 86.0944 157.97 85.5462 158.827 85.1509L167.208 103.31C176.674 98.9412 178.828 88.4973 179.078 80.2049L159.087 79.6037ZM161.603 84.331L159.142 84.6825L161.971 104.482L164.432 104.13L161.603 84.331ZM162.918 84.8648C162.319 84.7193 162.051 84.5614 161.971 84.5082C161.91 84.4676 161.881 84.4405 161.832 84.3668C161.708 84.1798 161.152 83.1702 161.152 80.4316H141.152C141.152 85.6032 142.164 90.9071 145.175 95.4369C148.33 100.184 152.982 103.032 158.195 104.299L162.918 84.8648ZM161.152 80.4316V80.168H141.152V80.4316H161.152ZM161.152 80.168C161.152 73.7281 163.053 72.4093 164.036 71.8968L154.792 54.1618C144.759 59.3915 141.152 69.4985 141.152 80.168H161.152ZM161.474 72.8148L163.144 72.4632L159.024 52.8922L157.354 53.2438L161.474 72.8148ZM146.338 79.377V81.3105H166.338V79.377H146.338ZM146.406 82.4728C146.793 85.7838 147.606 89.5505 149.585 92.7579C151.882 96.4802 155.933 99.5723 161.436 99.5723V79.5723C162.504 79.5723 163.72 79.866 164.828 80.5509C165.868 81.1942 166.404 81.9279 166.606 82.2558C166.794 82.5608 166.757 82.6116 166.639 82.1959C166.527 81.7991 166.386 81.1395 166.27 80.1483L146.406 82.4728ZM168.868 96.2619C171.201 93.6702 172.345 90.5906 172.955 87.9721C173.581 85.2816 173.809 82.3541 173.809 79.377H153.809C153.809 81.4388 153.64 82.7301 153.476 83.4381C153.294 84.218 153.252 83.7165 154.003 82.8826L168.868 96.2619ZM173.809 79.377V78.8496H153.809V79.377H173.809ZM173.798 78.3828C173.638 74.9581 173.268 71.6191 172.445 68.7861C171.862 66.7824 170.002 61.1547 164.08 59.1127L157.56 78.0201C155.32 77.2476 154.123 75.8015 153.661 75.1136C153.22 74.4569 153.154 74.075 153.239 74.3672C153.307 74.6021 153.427 75.1154 153.544 75.998C153.659 76.8619 153.756 77.9585 153.819 79.3164L173.798 78.3828ZM156.709 59.4505C147.903 63.4222 146.338 72.8344 146.338 79.377H166.338C166.338 78.3237 166.406 77.5332 166.496 76.965C166.586 76.3922 166.684 76.1389 166.696 76.1099C166.703 76.0926 166.598 76.3521 166.273 76.7116C165.927 77.0932 165.463 77.4427 164.931 77.6823L156.709 59.4505ZM187.363 60.4805V50.4805H186.203L185.073 50.7463L187.363 60.4805ZM202.48 74.6309L212.263 72.5558L212.048 71.5431L211.63 70.5959L202.48 74.6309ZM203.711 80.4316H213.711V79.3827L213.493 78.3566L203.711 80.4316ZM189.824 92.9121V102.912H190.486L191.142 102.825L189.824 92.9121ZM183.496 91.2422L188.976 82.8776L186.48 81.2422H183.496V91.2422ZM182.617 91.2422V81.2422H172.248L172.624 91.6043L182.617 91.2422ZM183.936 140.109L193.62 142.6L193.936 141.375V140.109H183.936ZM177.344 90.3633L187.34 90.0762L187.333 89.8382L187.315 89.6008L177.344 90.3633ZM180.156 61.0957L185.371 52.5629L182.97 51.0957H180.156V61.0957ZM181.738 63.5566H171.738V87.1671L188.696 70.739L181.738 63.5566ZM185.869 60.832V70.832H187.03L188.16 70.5662L185.869 60.832ZM184.023 75.2461L193.943 76.5124L193.977 76.2427L193.997 75.9715L184.023 75.2461ZM198.438 80.959L208.272 82.7706L208.438 81.8724V80.959H198.438ZM192.285 68.0391L199.406 61.0183L199.19 60.799L198.961 60.5934L192.285 68.0391ZM187.627 65.7539L187.022 75.7356L187.324 75.7539H187.627V65.7539ZM187.363 70.4805C187.366 70.4805 187.751 70.3863 188.747 71.3187C189.921 72.4171 191.551 74.6295 193.331 78.6659L211.63 70.5959C207.137 60.4072 199.638 50.4805 187.363 50.4805V70.4805ZM192.698 76.7059L193.929 82.5067L213.493 78.3566L212.263 72.5558L192.698 76.7059ZM193.711 80.4316C193.711 81.1121 193.602 81.3782 193.595 81.3946C193.59 81.4077 193.593 81.399 193.603 81.3848C193.612 81.3713 193.604 81.3872 193.555 81.4315C193.317 81.6457 192.079 82.5245 188.507 82.9993L191.142 102.825C196.828 102.069 202.533 100.253 206.924 96.3068C211.653 92.0564 213.711 86.3769 213.711 80.4316H193.711ZM189.824 82.9121H189.209V102.912H189.824V82.9121ZM189.209 82.9121C189.122 82.9121 189.067 82.9065 189.039 82.9025C189.011 82.8987 189.001 82.8954 189.004 82.8963C189.005 82.8965 189.007 82.8971 189.01 82.898C189.011 82.8984 189.012 82.8988 189.012 82.8992C189.013 82.8995 189.014 82.8997 189.014 82.8997C189.014 82.8997 189.013 82.8994 189.012 82.8987C189.01 82.8981 189.008 82.897 189.006 82.8955C189 82.8923 188.99 82.8867 188.976 82.8776L178.016 99.6068C181.408 101.83 185.231 102.912 189.209 102.912V82.9121ZM183.496 81.2422H182.617V101.242H183.496V81.2422ZM172.624 91.6043C173.504 115.888 173.936 131.999 173.936 140.109H193.936C193.936 131.579 193.489 115.112 192.611 90.8801L172.624 91.6043ZM174.251 137.619C174.199 137.818 174.39 136.835 175.457 135.669C176.043 135.028 176.872 134.359 177.963 133.87C179.061 133.377 180.158 133.186 181.123 133.186V153.186C184.702 153.186 187.921 151.676 190.217 149.164C192.221 146.972 193.144 144.452 193.62 142.6L174.251 137.619ZM181.123 133.186C182 133.186 183.255 133.368 184.584 134.074C185.94 134.795 186.891 135.805 187.484 136.75C188.49 138.353 188.311 139.475 188.311 138.703H168.311C168.311 140.92 168.6 144.283 170.543 147.38C172.976 151.257 177.005 153.186 181.123 153.186V133.186ZM188.311 138.703V137.561H168.311V138.703H188.311ZM188.311 137.561C188.311 128.377 187.984 112.514 187.34 90.0762L167.348 90.6504C167.993 113.095 168.311 128.697 168.311 137.561H188.311ZM187.315 89.6008C186.559 79.7157 186.201 72.3701 186.201 67.4238H166.201C166.201 73.1416 166.605 81.089 167.373 91.1258L187.315 89.6008ZM186.201 67.4238V65.5781H166.201V67.4238H186.201ZM186.201 65.5781C186.201 64.7713 186.382 65.8401 185.428 67.4105C184.86 68.3436 183.924 69.386 182.542 70.144C181.177 70.8924 179.867 71.0957 178.926 71.0957V51.0957C174.691 51.0957 170.689 53.1523 168.337 57.0222C166.474 60.0867 166.201 63.3966 166.201 65.5781H186.201ZM178.926 71.0957H180.156V51.0957H178.926V71.0957ZM174.942 69.6285C174.515 69.368 173.672 68.7543 172.931 67.6019C172.134 66.3629 171.738 64.9326 171.738 63.5566H191.738C191.738 58.2063 188.571 54.5185 185.371 52.5629L174.942 69.6285ZM188.696 70.739C189.413 70.0449 189.723 69.8346 189.683 69.8609C189.652 69.8812 189.364 70.0723 188.851 70.2788C188.37 70.4724 187.318 70.832 185.869 70.832V50.832C182.397 50.832 179.774 52.4378 178.671 53.1655C177.254 54.1 175.939 55.2519 174.78 56.3742L188.696 70.739ZM188.16 70.5662L189.654 70.2146L185.073 50.7463L183.579 51.0979L188.16 70.5662ZM174.104 73.9798C173.523 78.532 173.375 83.6402 175.036 88.059C175.942 90.4672 177.526 93.0406 180.191 94.9676C182.901 96.9274 185.928 97.6387 188.682 97.6387V77.6387C189.355 77.6387 190.628 77.8336 191.91 78.7606C193.147 79.655 193.629 80.6793 193.758 81.022C193.863 81.302 193.749 81.1462 193.713 80.2663C193.679 79.4262 193.728 78.1996 193.943 76.5124L174.104 73.9798ZM188.682 97.6387H190.088V77.6387H188.682V97.6387ZM190.088 97.6387C193.978 97.6387 198.306 96.7178 201.982 93.7774C205.715 90.7907 207.547 86.7047 208.272 82.7706L188.603 79.1474C188.552 79.4263 188.523 79.3749 188.653 79.1334C188.798 78.8646 189.069 78.4953 189.488 78.1601C190.38 77.4463 190.944 77.6387 190.088 77.6387V97.6387ZM208.438 80.959V80.168H188.438V80.959H208.438ZM208.438 80.168C208.438 72.5722 204.462 66.1461 199.406 61.0183L185.164 75.0598C188.312 78.2523 188.438 79.9122 188.438 80.168H208.438ZM198.961 60.5934C196.503 58.3898 192.636 55.7539 187.627 55.7539V75.7539C186.493 75.7539 185.727 75.4431 185.442 75.3031C185.18 75.1747 185.239 75.1526 185.61 75.4848L198.961 60.5934ZM188.232 55.7722C180.092 55.2789 176.773 62.2614 175.927 64.4899C174.798 67.463 174.303 71.0406 174.05 74.5207L193.997 75.9715C194.097 74.5917 194.227 73.5288 194.365 72.7395C194.508 71.9166 194.625 71.5875 194.625 71.5882C194.619 71.6025 194.547 71.7935 194.371 72.0918C194.198 72.3851 193.858 72.8938 193.284 73.4521C192.693 74.0266 191.828 74.6752 190.663 75.1432C189.47 75.6224 188.218 75.8081 187.022 75.7356L188.232 55.7722ZM216.367 61.623V51.623H215.377L214.406 51.8172L216.367 61.623ZM223.047 70.5L232.792 72.7423L233.272 70.6568L232.856 68.5575L223.047 70.5ZM213.291 80.4316V70.4316H203.291V80.4316H213.291ZM213.291 80.6953H203.291V81.5677L203.442 82.427L213.291 80.6953ZM228.32 80.6953L224.534 71.4398L220.431 73.1184L218.919 77.2862L228.32 80.6953ZM230.254 79.9043V69.9043H228.288L226.468 70.6488L230.254 79.9043ZM232.715 82.8926H242.715V82.017L242.563 81.1547L232.715 82.8926ZM224.189 93.1758L226.032 103.005L227.671 102.697L229.122 101.875L224.189 93.1758ZM219.971 93.9668V103.967H220.9L221.814 103.796L219.971 93.9668ZM208.633 83.1562L198.92 85.5349L199.034 86.0022L199.193 86.4563L208.633 83.1562ZM215.049 61.8867L213.088 52.0809L211.612 52.376L210.289 53.092L215.049 61.8867ZM213.115 72.6973L203.423 70.2357L203.115 71.4473V72.6973H213.115ZM213.115 72.873H203.115V76.8856L205.889 79.7853L213.115 72.873ZM215.049 74.8945L207.822 81.8068L210.776 84.8945H215.049V74.8945ZM217.51 71.291L227.042 74.3135L227.51 72.8384V71.291H217.51ZM217.51 69.8848H227.51V69.0835L227.382 68.2924L217.51 69.8848ZM216.367 71.623C215.621 71.623 214.737 71.438 213.898 70.9871C213.097 70.5567 212.663 70.0612 212.508 69.8549C212.371 69.673 212.451 69.7203 212.631 70.1917C212.808 70.6524 213.027 71.3789 213.237 72.4425L232.856 68.5575C232.141 64.9429 230.902 61.0374 228.489 57.8296C225.764 54.2091 221.585 51.623 216.367 51.623V71.623ZM213.302 68.2577C213.044 69.3788 212.769 70.1295 212.549 70.5987C212.33 71.0636 212.21 71.1595 212.292 71.0731C212.398 70.961 212.648 70.7505 213.027 70.5913C213.397 70.4359 213.646 70.4316 213.643 70.4316V90.4316C218.636 90.4316 223.273 88.5643 226.814 84.8244C230.067 81.3893 231.813 76.9991 232.792 72.7423L213.302 68.2577ZM213.643 70.4316H213.291V90.4316H213.643V70.4316ZM203.291 80.4316V80.6953H223.291V80.4316H203.291ZM203.442 82.427C204.094 86.1332 205.491 90.2409 208.554 93.5199C211.906 97.1082 216.302 98.6934 220.762 98.6934V78.6934C220.859 78.6934 221.254 78.7123 221.799 78.9347C222.367 79.1665 222.84 79.5147 223.17 79.8678C223.473 80.1926 223.535 80.3906 223.477 80.2553C223.415 80.1108 223.272 79.7139 223.14 78.9636L203.442 82.427ZM220.762 98.6934C230.872 98.6934 235.629 89.8738 237.721 84.1044L218.919 77.2862C218.577 78.2306 218.267 78.8916 218.023 79.3299C217.776 79.7741 217.651 79.8904 217.713 79.8253C217.785 79.7482 218.1 79.4408 218.698 79.1571C219.33 78.8573 220.053 78.6934 220.762 78.6934V98.6934ZM232.107 89.9508L234.04 89.1598L226.468 70.6488L224.534 71.4398L232.107 89.9508ZM230.254 89.9043C229.257 89.9043 228.069 89.7033 226.863 89.1336C225.657 88.5639 224.749 87.7757 224.117 87.0084C223.512 86.2746 223.202 85.614 223.054 85.2361C222.976 85.0388 222.93 84.8853 222.904 84.789C222.878 84.6921 222.868 84.6365 222.867 84.6304L242.563 81.1547C242.242 79.3362 241.514 76.6723 239.555 74.2943C237.248 71.4924 233.89 69.9043 230.254 69.9043V89.9043ZM222.715 82.8926C222.715 81.8867 223.166 81.4671 222.885 81.8056C222.51 82.2579 221.492 83.2095 219.257 84.4768L229.122 101.875C235.425 98.301 242.715 92.2976 242.715 82.8926H222.715ZM222.347 83.3471L218.128 84.1381L221.814 103.796L226.032 103.005L222.347 83.3471ZM219.971 83.9668C219.932 83.9668 220.043 83.9659 220.21 84.0342C220.371 84.0999 220.386 84.1488 220.258 84.0268C219.921 83.7053 219.033 82.6044 218.073 79.8562L199.193 86.4563C202.26 95.2296 208.568 103.967 219.971 103.967V83.9668ZM218.346 80.7776C217.737 78.2935 217.578 76.7886 217.578 76.0371H197.578C197.578 79.0356 198.122 82.2768 198.92 85.5349L218.346 80.7776ZM217.578 76.0371V74.8945H197.578V76.0371H217.578ZM217.578 74.8945C217.578 73.312 217.898 72.5217 218.117 72.1405C218.32 71.788 218.729 71.2655 219.808 70.6814L210.289 53.092C206.388 55.2032 203.062 58.1963 200.774 62.1798C198.503 66.1345 197.578 70.5005 197.578 74.8945H217.578ZM217.01 71.6925L218.328 71.4289L214.406 51.8172L213.088 52.0809L217.01 71.6925ZM203.115 72.6973V72.873H223.115V72.6973H203.115ZM205.889 79.7853L207.822 81.8068L222.275 67.9823L220.342 65.9608L205.889 79.7853ZM215.049 84.8945C220.501 84.8945 223.541 81.1564 224.581 79.6333C225.801 77.8473 226.548 75.8704 227.042 74.3135L207.977 68.2686C207.709 69.114 207.666 68.9389 208.065 68.354C208.285 68.032 210.476 64.8945 215.049 64.8945V84.8945ZM227.51 71.291V69.8848H207.51V71.291H227.51ZM227.382 68.2924C227.198 67.1529 226.882 65.5368 226.226 63.974C225.908 63.2159 225.254 61.8342 224.005 60.4989C222.654 59.0545 220.074 57.1602 216.367 57.1602V77.1602C212.895 77.1602 210.538 75.3793 209.4 74.162C208.363 73.0537 207.91 72.0126 207.782 71.7086C207.508 71.054 207.528 70.8002 207.637 71.4771L227.382 68.2924ZM216.367 57.1602H215.84V77.1602H216.367V57.1602ZM215.84 57.1602C211.873 57.1602 209.226 59.2748 207.991 60.5501C206.741 61.8411 205.973 63.2238 205.527 64.1294C204.608 65.9962 203.944 68.1821 203.423 70.2357L222.808 75.1588C223.223 73.5211 223.483 72.9383 223.472 72.9595C223.45 73.004 223.37 73.1627 223.22 73.3934C223.076 73.6143 222.799 74.008 222.359 74.4623C221.571 75.2762 219.368 77.1602 215.84 77.1602V57.1602ZM241.064 63.3809L231.289 65.4864L232.989 73.3809H241.064V63.3809ZM241.328 63.3809V73.3809H245.972L248.968 69.8327L241.328 63.3809ZM248.535 59.4258L250.312 49.5849L249.431 49.4258H248.535V59.4258ZM254.863 63.3809L264.384 66.441L264.863 64.9485V63.3809H254.863ZM252.139 65.8418L249.127 75.3776L250.597 75.8418H252.139V65.8418ZM248.799 64.7871L251.81 55.2513L250.34 54.7871H248.799V64.7871ZM247.92 64.7871V54.7871H246.996L246.087 54.9565L247.92 64.7871ZM242.734 90.2754L252.552 92.1756L252.734 91.2342V90.2754H242.734ZM234.648 59.7773L225.162 56.6151L224.108 59.7773L225.162 62.9396L234.648 59.7773ZM237.461 67.668C235.706 67.668 234.129 67.0992 232.929 66.2781C231.841 65.5336 231.287 64.743 231.09 64.4312C230.77 63.9228 230.972 64.0173 231.289 65.4864L250.84 61.2753C250.336 58.9358 249.528 56.1738 248.006 53.7612C246.421 51.2475 243.018 47.668 237.461 47.668V67.668ZM241.064 73.3809H241.328V53.3809H241.064V73.3809ZM248.968 69.8327C249.486 69.2194 249.726 69.118 249.611 69.1812C249.545 69.2172 249.404 69.2844 249.193 69.34C248.98 69.3964 248.754 69.4258 248.535 69.4258V49.4258C242.097 49.4258 237.132 52.8503 233.688 56.9291L248.968 69.8327ZM246.758 69.2667C247.479 69.3968 247.934 69.5202 248.181 69.6014C248.448 69.6891 248.321 69.6784 247.981 69.4658C247.642 69.2541 246.85 68.6895 246.124 67.5906C245.331 66.3902 244.863 64.9143 244.863 63.3809H264.863C264.863 57.8957 261.487 54.3217 258.581 52.5059C255.94 50.855 252.899 50.0521 250.312 49.5849L246.758 69.2667ZM245.343 60.3208C245.41 60.1136 245.804 58.9611 247.084 57.8055C248.572 56.4613 250.451 55.8418 252.139 55.8418V75.8418C255.115 75.8418 258.093 74.8122 260.489 72.6476C262.677 70.6717 263.79 68.2887 264.384 66.441L245.343 60.3208ZM255.15 56.306L251.81 55.2513L245.788 74.3229L249.127 75.3776L255.15 56.306ZM248.799 54.7871H247.92V74.7871H248.799V54.7871ZM246.087 54.9565C241.791 55.7574 238.971 58.4812 237.336 60.9303C235.774 63.2681 234.883 65.9052 234.313 68.2504C233.165 72.98 232.734 79.1059 232.734 86.1445H252.734C252.734 79.5894 253.168 75.3589 253.748 72.9693C254.043 71.755 254.232 71.6418 253.967 72.0387C253.628 72.5468 252.32 74.1391 249.753 74.6177L246.087 54.9565ZM232.734 86.1445V90.2754H252.734V86.1445H232.734ZM232.917 88.3752C232.923 88.3425 233.151 87.0373 234.434 85.616C235.128 84.8476 236.055 84.1368 237.198 83.6449C238.328 83.1584 239.403 83 240.273 83V103C243.576 103 246.859 101.698 249.276 99.0217C251.381 96.6922 252.194 94.0247 252.552 92.1756L232.917 88.3752ZM240.273 83C241.371 83 243.863 83.4073 245.813 85.7237C247.487 87.7109 247.461 89.6112 247.461 89.6602H227.461C227.461 91.9357 227.904 95.5059 230.515 98.6064C233.403 102.036 237.301 103 240.273 103V83ZM247.461 89.6602V79.4648H227.461V89.6602H247.461ZM247.461 79.4648C247.461 71.1614 246.426 63.4887 244.135 56.6151L225.162 62.9396C226.62 67.316 227.461 72.7683 227.461 79.4648H247.461ZM244.135 62.9396C243.897 63.654 243.246 65.0383 241.703 66.1953C240.116 67.3858 238.476 67.668 237.461 67.668V47.668C235.039 47.668 232.228 48.3017 229.703 50.1953C227.223 52.0554 225.868 54.4944 225.162 56.6151L244.135 62.9396ZM269.629 89.9238H279.629V88.4078L279.18 86.9598L269.629 89.9238ZM266.553 93.2637V103.264H268.853L270.922 102.259L266.553 93.2637ZM263.828 90.1875L254.774 85.9432L253.506 88.6463L253.929 91.6017L263.828 90.1875ZM266.816 97.375C265.185 97.375 263.313 96.7791 261.815 95.4221C260.526 94.2535 260.14 93.0873 260.078 92.8878L279.18 86.9598C278.59 85.0611 277.472 82.6205 275.245 80.6023C272.811 78.3957 269.796 77.375 266.816 77.375V97.375ZM259.629 89.9238C259.629 87.4827 260.727 85.7511 261.504 84.9069C262.155 84.2 262.597 84.0677 262.184 84.2686L270.922 102.259C273.428 101.041 279.629 97.4483 279.629 89.9238H259.629ZM266.553 83.2637C267.302 83.2637 268.31 83.3928 269.411 83.8571C270.538 84.3325 271.489 85.0448 272.215 85.8643C272.911 86.6504 273.285 87.402 273.478 87.896C273.668 88.3817 273.718 88.7083 273.728 88.7733L253.929 91.6017C254.219 93.6372 254.985 96.5756 257.243 99.125C259.821 102.035 263.287 103.264 266.553 103.264V83.2637ZM272.883 94.4318C273.034 94.1083 272.855 94.6384 272.088 95.3601C271.178 96.217 269.36 97.375 266.816 97.375V77.375C259.3 77.375 255.852 83.6419 254.774 85.9432L272.883 94.4318Z" fill="white" mask="url(#path-1-outside-1_589_45)"/>
</svg>
