<svg width="109" height="109" viewBox="0 0 109 109" fill="none" xmlns="http://www.w3.org/2000/svg">
<g filter="url(#filter0_i_605_5)">
<circle cx="54.5" cy="54.5" r="54.5" fill="#D0F56E"/>
</g>
<g filter="url(#filter1_bi_605_5)">
<path d="M23.2515 69.92C23.0382 69.92 22.8248 69.8987 22.6115 69.856C22.3982 69.856 22.1635 69.8347 21.9075 69.792C21.3955 69.6213 20.9688 69.2587 20.6275 68.704C20.4568 68.3627 20.3715 67.8933 20.3715 67.296C20.3715 66.6987 20.5635 65.7173 20.9475 64.352C21.3315 62.9867 21.9502 60.96 22.8035 58.272C21.8648 58.6133 20.7768 59.0187 19.5395 59.488C18.3448 59.9573 17.1075 60.4267 15.8275 60.896C15.3582 61.0667 14.8888 61.0453 14.4195 60.832C13.9075 60.576 13.5448 60.192 13.3315 59.68C13.1608 59.2107 13.2035 58.7413 13.4595 58.272C13.6728 57.76 14.0355 57.3973 14.5475 57.184C16.3822 56.5013 18.0888 55.8613 19.6675 55.264C21.2888 54.6667 22.6115 54.176 23.6355 53.792C24.6595 53.408 25.1715 53.216 25.1715 53.216C25.5982 53.0453 26.0035 53.024 26.3875 53.152C26.9422 53.28 27.3475 53.6 27.6035 54.112C27.8168 54.496 27.8808 54.8373 27.7955 55.136C27.7528 55.4347 27.6888 55.7547 27.6035 56.096C27.5182 56.2667 27.4542 56.4587 27.4115 56.672C27.3688 56.8427 27.3048 57.056 27.2195 57.312C26.9208 58.0373 26.6008 58.9333 26.2595 60C25.9608 61.024 25.6408 62.0693 25.2995 63.136C25.0862 63.7333 24.9155 64.2453 24.7875 64.672C24.6595 65.0987 24.5528 65.4827 24.4675 65.824C25.2782 65.6533 26.4515 65.1627 27.9875 64.352C29.3102 63.6267 30.7182 62.7947 32.2115 61.856C33.7475 60.8747 35.3048 59.8507 36.8835 58.784C37.2248 58.5707 37.5662 58.3573 37.9075 58.144C38.2915 57.9307 38.6328 57.696 38.9315 57.44C39.4008 57.1413 39.8915 57.056 40.4035 57.184C40.9582 57.2693 41.3848 57.5467 41.6835 58.016C41.9822 58.4427 42.0675 58.912 41.9395 59.424C41.8542 59.936 41.5768 60.3413 41.1075 60.64C40.7662 60.896 40.4035 61.152 40.0195 61.408C39.6782 61.6213 39.3155 61.856 38.9315 62.112C37.3102 63.1787 35.7315 64.2027 34.1955 65.184C32.6595 66.1653 31.2088 67.0187 29.8435 67.744C27.0702 69.1947 24.8728 69.92 23.2515 69.92ZM62.589 65.504C62.2903 65.504 62.013 65.4613 61.757 65.376C60.9463 65.2053 60.3703 64.7147 60.029 63.904C59.773 63.1787 59.837 62.368 60.221 61.472C60.6477 60.576 61.2023 59.5733 61.885 58.464C62.141 58.08 62.3757 57.696 62.589 57.312C62.845 56.8853 63.0583 56.5013 63.229 56.16C63.3143 56.032 63.3783 55.9253 63.421 55.84C63.4637 55.712 63.5063 55.6053 63.549 55.52C62.269 55.3067 60.7757 55.264 59.069 55.392C57.405 55.4773 55.5277 55.7973 53.437 56.352C51.6023 56.8213 49.6183 57.44 47.485 58.208C45.3943 58.9333 43.1757 59.808 40.829 60.832C40.3597 61.0027 39.8903 61.0027 39.421 60.832C38.9517 60.6613 38.6103 60.3413 38.397 59.872C38.141 59.4027 38.1197 58.912 38.333 58.4C38.5463 57.8453 38.8877 57.4827 39.357 57.312C41.7463 56.2453 44.029 55.328 46.205 54.56C48.4237 53.7493 50.5143 53.1093 52.477 52.64C57.725 51.3173 62.013 51.104 65.341 52C66.3223 52.256 67.005 52.8533 67.389 53.792C67.773 54.7307 67.6877 55.776 67.133 56.928C66.5783 58.08 65.917 59.2747 65.149 60.512C65.1063 60.5973 65.0423 60.704 64.957 60.832C64.8717 60.96 64.7863 61.1093 64.701 61.28C65.6823 61.0667 67.133 60.64 69.053 60C70.973 59.36 73.6183 58.4213 76.989 57.184C77.4583 57.0133 77.9277 57.056 78.397 57.312C78.909 57.5253 79.2503 57.888 79.421 58.4C79.6343 58.8693 79.6343 59.36 79.421 59.872C79.2077 60.3413 78.8237 60.6827 78.269 60.896C76.3063 61.5787 74.5143 62.1973 72.893 62.752C71.2717 63.3067 69.821 63.776 68.541 64.16C66.8343 64.672 65.533 65.0347 64.637 65.248C63.741 65.4187 63.0583 65.504 62.589 65.504Z" fill="#936EF5"/>
</g>
<defs>
<filter id="filter0_i_605_5" x="0" y="0" width="109" height="109" filterUnits="userSpaceOnUse" color-interpolation-filters="sRGB">
<feFlood flood-opacity="0" result="BackgroundImageFix"/>
<feBlend mode="normal" in="SourceGraphic" in2="BackgroundImageFix" result="shape"/>
<feColorMatrix in="SourceAlpha" type="matrix" values="0 0 0 0 0 0 0 0 0 0 0 0 0 0 0 0 0 0 127 0" result="hardAlpha"/>
<feOffset dx="4" dy="4"/>
<feComposite in2="hardAlpha" operator="arithmetic" k2="-1" k3="1"/>
<feColorMatrix type="matrix" values="0 0 0 0 0 0 0 0 0 0 0 0 0 0 0 0 0 0 0.25 0"/>
<feBlend mode="normal" in2="shape" result="effect1_innerShadow_605_5"/>
</filter>
<filter id="filter1_bi_605_5" x="0.4755" y="38.056" width="91.8655" height="44.464" filterUnits="userSpaceOnUse" color-interpolation-filters="sRGB">
<feFlood flood-opacity="0" result="BackgroundImageFix"/>
<feGaussianBlur in="BackgroundImageFix" stdDeviation="6.3"/>
<feComposite in2="SourceAlpha" operator="in" result="effect1_backgroundBlur_605_5"/>
<feBlend mode="normal" in="SourceGraphic" in2="effect1_backgroundBlur_605_5" result="shape"/>
<feColorMatrix in="SourceAlpha" type="matrix" values="0 0 0 0 0 0 0 0 0 0 0 0 0 0 0 0 0 0 127 0" result="hardAlpha"/>
<feOffset dx="3" dy="4"/>
<feGaussianBlur stdDeviation="2"/>
<feComposite in2="hardAlpha" operator="arithmetic" k2="-1" k3="1"/>
<feColorMatrix type="matrix" values="0 0 0 0 0 0 0 0 0 0 0 0 0 0 0 0 0 0 0.25 0"/>
<feBlend mode="normal" in2="shape" result="effect2_innerShadow_605_5"/>
</filter>
</defs>
</svg>
