<svg width="109" height="109" viewBox="0 0 109 109" fill="none" xmlns="http://www.w3.org/2000/svg">
<g filter="url(#filter0_i_605_5)">
<circle cx="54.5" cy="54.5" r="54.5" fill="#D0F56E"/>
</g>
<g filter="url(#filter1_bi_605_5)">
<path d="M20.6273 72.88C20.3073 72.88 19.9873 72.848 19.6673 72.784C19.3473 72.784 18.9953 72.752 18.6113 72.688C17.8433 72.432 17.2033 71.888 16.6913 71.056C16.4353 70.544 16.3073 69.84 16.3073 68.944C16.3073 68.048 16.5953 66.576 17.1713 64.528C17.7473 62.48 18.6753 59.44 19.9553 55.408C18.5473 55.92 16.9153 56.528 15.0593 57.232C13.2673 57.936 11.4113 58.64 9.49125 59.344C8.78725 59.6 8.08325 59.568 7.37925 59.248C6.61125 58.864 6.06725 58.288 5.74725 57.52C5.49125 56.816 5.55525 56.112 5.93925 55.408C6.25925 54.64 6.80325 54.096 7.57125 53.776C10.3232 52.752 12.8832 51.792 15.2513 50.896C17.6833 50 19.6673 49.264 21.2032 48.688C22.7393 48.112 23.5073 47.824 23.5073 47.824C24.1473 47.568 24.7553 47.536 25.3313 47.728C26.1633 47.92 26.7713 48.4 27.1553 49.168C27.4753 49.744 27.5713 50.256 27.4433 50.704C27.3793 51.152 27.2833 51.632 27.1553 52.144C27.0273 52.4 26.9313 52.688 26.8673 53.008C26.8033 53.264 26.7073 53.584 26.5793 53.968C26.1313 55.056 25.6513 56.4 25.1393 58C24.6913 59.536 24.2113 61.104 23.6993 62.704C23.3793 63.6 23.1233 64.368 22.9313 65.008C22.7393 65.648 22.5793 66.224 22.4513 66.736C23.6673 66.48 25.4273 65.744 27.7313 64.528C29.7153 63.44 31.8273 62.192 34.0673 60.784C36.3713 59.312 38.7073 57.776 41.0753 56.176C41.5873 55.856 42.0993 55.536 42.6113 55.216C43.1873 54.896 43.6993 54.544 44.1473 54.16C44.8513 53.712 45.5873 53.584 46.3553 53.776C47.1873 53.904 47.8273 54.32 48.2753 55.024C48.7233 55.664 48.8513 56.368 48.6593 57.136C48.5313 57.904 48.1153 58.512 47.4113 58.96C46.8993 59.344 46.3553 59.728 45.7793 60.112C45.2673 60.432 44.7233 60.784 44.1473 61.168C41.7153 62.768 39.3473 64.304 37.0433 65.776C34.7393 67.248 32.5633 68.528 30.5153 69.616C26.3553 71.792 23.0593 72.88 20.6273 72.88ZM79.6335 66.256C79.1855 66.256 78.7695 66.192 78.3855 66.064C77.1695 65.808 76.3055 65.072 75.7935 63.856C75.4095 62.768 75.5055 61.552 76.0815 60.208C76.7215 58.864 77.5535 57.36 78.5775 55.696C78.9615 55.12 79.3135 54.544 79.6335 53.968C80.0175 53.328 80.3375 52.752 80.5935 52.24C80.7215 52.048 80.8175 51.888 80.8815 51.76C80.9455 51.568 81.0095 51.408 81.0735 51.28C79.1535 50.96 76.9135 50.896 74.3535 51.088C71.8575 51.216 69.0415 51.696 65.9055 52.528C63.1535 53.232 60.1775 54.16 56.9775 55.312C53.8415 56.4 50.5135 57.712 46.9935 59.248C46.2895 59.504 45.5855 59.504 44.8815 59.248C44.1775 58.992 43.6655 58.512 43.3455 57.808C42.9615 57.104 42.9295 56.368 43.2495 55.6C43.5695 54.768 44.0815 54.224 44.7855 53.968C48.3695 52.368 51.7935 50.992 55.0575 49.84C58.3855 48.624 61.5215 47.664 64.4655 46.96C72.3375 44.976 78.7695 44.656 83.7615 46C85.2335 46.384 86.2575 47.28 86.8335 48.688C87.4095 50.096 87.2815 51.664 86.4495 53.392C85.6175 55.12 84.6255 56.912 83.4735 58.768C83.4095 58.896 83.3135 59.056 83.1855 59.248C83.0575 59.44 82.9295 59.664 82.8015 59.92C84.2735 59.6 86.4495 58.96 89.3295 58C92.2095 57.04 96.1775 55.632 101.234 53.776C101.938 53.52 102.642 53.584 103.346 53.968C104.114 54.288 104.626 54.832 104.882 55.6C105.202 56.304 105.202 57.04 104.882 57.808C104.562 58.512 103.986 59.024 103.154 59.344C100.21 60.368 97.5215 61.296 95.0895 62.128C92.6575 62.96 90.4815 63.664 88.5615 64.24C86.0015 65.008 84.0495 65.552 82.7055 65.872C81.3615 66.128 80.3375 66.256 79.6335 66.256Z" fill="#936EF5"/>
</g>
<g filter="url(#filter2_bi_605_5)">
<path d="M36 48.75C34.3125 48.75 32.875 48.1562 31.6875 46.9688C30.5 45.7812 29.9062 44.3438 29.9062 42.6562C29.9062 40.9688 30.5 39.5312 31.6875 38.3438C32.875 37.1562 34.3125 36.5625 36 36.5625C37.6875 36.5625 39.125 37.1562 40.3125 38.3438C41.5 39.5312 42.0938 40.9688 42.0938 42.6562C42.0938 44.3438 41.5 45.7812 40.3125 46.9688C39.125 48.1562 37.6875 48.75 36 48.75Z" fill="#F56ED0"/>
</g>
<g filter="url(#filter3_bi_605_5)">
<path d="M65 78.75C63.3125 78.75 61.875 78.1562 60.6875 76.9688C59.5 75.7812 58.9062 74.3438 58.9062 72.6562C58.9062 70.9688 59.5 69.5312 60.6875 68.3438C61.875 67.1562 63.3125 66.5625 65 66.5625C66.6875 66.5625 68.125 67.1562 69.3125 68.3438C70.5 69.5312 71.0938 70.9688 71.0938 72.6562C71.0938 74.3438 70.5 75.7812 69.3125 76.9688C68.125 78.1562 66.6875 78.75 65 78.75Z" fill="#F56ED0"/>
</g>
<defs>
<filter id="filter0_i_605_5" x="0" y="0" width="109" height="109" filterUnits="userSpaceOnUse" color-interpolation-filters="sRGB">
<feFlood flood-opacity="0" result="BackgroundImageFix"/>
<feBlend mode="normal" in="SourceGraphic" in2="BackgroundImageFix" result="shape"/>
<feColorMatrix in="SourceAlpha" type="matrix" values="0 0 0 0 0 0 0 0 0 0 0 0 0 0 0 0 0 0 127 0" result="hardAlpha"/>
<feOffset dx="4" dy="4"/>
<feComposite in2="hardAlpha" operator="arithmetic" k2="-1" k3="1"/>
<feColorMatrix type="matrix" values="0 0 0 0 0 0 0 0 0 0 0 0 0 0 0 0 0 0 0.25 0"/>
<feBlend mode="normal" in2="shape" result="effect1_innerShadow_605_5"/>
</filter>
<filter id="filter1_bi_605_5" x="-7.23675" y="31.384" width="125.198" height="54.096" filterUnits="userSpaceOnUse" color-interpolation-filters="sRGB">
<feFlood flood-opacity="0" result="BackgroundImageFix"/>
<feGaussianBlur in="BackgroundImageFix" stdDeviation="6.3"/>
<feComposite in2="SourceAlpha" operator="in" result="effect1_backgroundBlur_605_5"/>
<feBlend mode="normal" in="SourceGraphic" in2="effect1_backgroundBlur_605_5" result="shape"/>
<feColorMatrix in="SourceAlpha" type="matrix" values="0 0 0 0 0 0 0 0 0 0 0 0 0 0 0 0 0 0 127 0" result="hardAlpha"/>
<feOffset dx="3" dy="4"/>
<feGaussianBlur stdDeviation="2"/>
<feComposite in2="hardAlpha" operator="arithmetic" k2="-1" k3="1"/>
<feColorMatrix type="matrix" values="0 0 0 0 0 0 0 0 0 0 0 0 0 0 0 0 0 0 0.25 0"/>
<feBlend mode="normal" in2="shape" result="effect2_innerShadow_605_5"/>
</filter>
<filter id="filter2_bi_605_5" x="17.3062" y="23.9625" width="37.3875" height="37.3875" filterUnits="userSpaceOnUse" color-interpolation-filters="sRGB">
<feFlood flood-opacity="0" result="BackgroundImageFix"/>
<feGaussianBlur in="BackgroundImageFix" stdDeviation="6.3"/>
<feComposite in2="SourceAlpha" operator="in" result="effect1_backgroundBlur_605_5"/>
<feBlend mode="normal" in="SourceGraphic" in2="effect1_backgroundBlur_605_5" result="shape"/>
<feColorMatrix in="SourceAlpha" type="matrix" values="0 0 0 0 0 0 0 0 0 0 0 0 0 0 0 0 0 0 127 0" result="hardAlpha"/>
<feOffset dx="3" dy="4"/>
<feGaussianBlur stdDeviation="2"/>
<feComposite in2="hardAlpha" operator="arithmetic" k2="-1" k3="1"/>
<feColorMatrix type="matrix" values="0 0 0 0 0 0 0 0 0 0 0 0 0 0 0 0 0 0 0.25 0"/>
<feBlend mode="normal" in2="shape" result="effect2_innerShadow_605_5"/>
</filter>
<filter id="filter3_bi_605_5" x="46.3062" y="53.9625" width="37.3875" height="37.3875" filterUnits="userSpaceOnUse" color-interpolation-filters="sRGB">
<feFlood flood-opacity="0" result="BackgroundImageFix"/>
<feGaussianBlur in="BackgroundImageFix" stdDeviation="6.3"/>
<feComposite in2="SourceAlpha" operator="in" result="effect1_backgroundBlur_605_5"/>
<feBlend mode="normal" in="SourceGraphic" in2="effect1_backgroundBlur_605_5" result="shape"/>
<feColorMatrix in="SourceAlpha" type="matrix" values="0 0 0 0 0 0 0 0 0 0 0 0 0 0 0 0 0 0 127 0" result="hardAlpha"/>
<feOffset dx="3" dy="4"/>
<feGaussianBlur stdDeviation="2"/>
<feComposite in2="hardAlpha" operator="arithmetic" k2="-1" k3="1"/>
<feColorMatrix type="matrix" values="0 0 0 0 0 0 0 0 0 0 0 0 0 0 0 0 0 0 0.25 0"/>
<feBlend mode="normal" in2="shape" result="effect2_innerShadow_605_5"/>
</filter>
</defs>
</svg>
