<svg width="99" height="52" viewBox="0 0 99 52" fill="none" xmlns="http://www.w3.org/2000/svg">
<path d="M13.36 20.14V21H1V20.14H5.62V15.48L0.78 7.02H4.16L7.18 12.22L10.2 7.02H13.58L8.74 15.48V20.14H13.36ZM30.3033 20.14V21H25.0433L23.7433 17.98H17.8833L16.5833 21H11.3233V20.14H13.6233L19.3033 7.02H22.3233L27.9833 20.14H30.3033ZM20.8233 11.18L19.0633 15.24H22.5633L20.8233 11.18ZM41.0256 20.14V21H28.2656V20.14H30.9856C30.2523 19.7667 29.5856 19.2867 28.9856 18.7L30.8456 16.42C32.3523 17.74 33.7456 18.4 35.0256 18.4C35.599 18.4 36.0456 18.28 36.3656 18.04C36.699 17.7867 36.8656 17.4533 36.8656 17.04C36.8656 16.6133 36.6923 16.28 36.3456 16.04C35.999 15.7867 35.3123 15.5333 34.2856 15.28C32.659 14.8933 31.4656 14.3933 30.7056 13.78C29.959 13.1533 29.5856 12.18 29.5856 10.86C29.5856 9.52667 30.059 8.5 31.0056 7.78C31.9656 7.06 33.159 6.7 34.5856 6.7C35.519 6.7 36.4523 6.86 37.3856 7.18C38.319 7.5 39.1323 7.95333 39.8256 8.54L38.2456 10.82C37.0323 9.9 35.779 9.44 34.4856 9.44C33.9656 9.44 33.5523 9.56667 33.2456 9.82C32.9523 10.06 32.8056 10.3867 32.8056 10.8C32.8056 11.2 32.9856 11.52 33.3456 11.76C33.719 12 34.5656 12.2867 35.8856 12.62C37.219 12.94 38.2523 13.4267 38.9856 14.08C39.719 14.7333 40.0856 15.64 40.0856 16.8C40.0856 18.24 39.5456 19.3533 38.4656 20.14H41.0256ZM56.2595 20.14V21H51.4195V15.5H45.8595V21H41.0195V20.14H42.7395V7.02H45.8595V12.86H51.4195V7.02H54.5395V20.14H56.2595ZM14.76 44.14V45H1V44.14H6.2L0.94 31.02H4.32L7.88 39.92L11.44 31.02H14.82L9.54 44.14H14.76ZM27.5295 44.14V45H14.7695V44.14H17.4895C16.7562 43.7667 16.0895 43.2867 15.4895 42.7L17.3495 40.42C18.8562 41.74 20.2495 42.4 21.5295 42.4C22.1029 42.4 22.5495 42.28 22.8695 42.04C23.2029 41.7867 23.3695 41.4533 23.3695 41.04C23.3695 40.6133 23.1962 40.28 22.8495 40.04C22.5029 39.7867 21.8162 39.5333 20.7895 39.28C19.1629 38.8933 17.9695 38.3933 17.2095 37.78C16.4629 37.1533 16.0895 36.18 16.0895 34.86C16.0895 33.5267 16.5629 32.5 17.5095 31.78C18.4695 31.06 19.6629 30.7 21.0895 30.7C22.0229 30.7 22.9562 30.86 23.8895 31.18C24.8229 31.5 25.6362 31.9533 26.3295 32.54L24.7495 34.82C23.5362 33.9 22.2829 33.44 20.9895 33.44C20.4695 33.44 20.0562 33.5667 19.7495 33.82C19.4562 34.06 19.3095 34.3867 19.3095 34.8C19.3095 35.2 19.4895 35.52 19.8495 35.76C20.2229 36 21.0695 36.2867 22.3895 36.62C23.7229 36.94 24.7562 37.4267 25.4895 38.08C26.2229 38.7333 26.5895 39.64 26.5895 40.8C26.5895 42.24 26.0495 43.3533 24.9695 44.14H27.5295ZM27.5234 45V44.14H29.0434C28.7768 43.8333 28.6434 43.4467 28.6434 42.98C28.6434 42.5 28.8101 42.0933 29.1434 41.76C29.4901 41.4133 29.9101 41.24 30.4034 41.24C30.8968 41.24 31.3101 41.4133 31.6434 41.76C31.9901 42.0933 32.1634 42.4933 32.1634 42.96C32.1634 43.4267 32.0234 43.82 31.7434 44.14H33.2834V45H27.5234Z" fill="white"/>
<path d="M95 8V44" stroke="white" stroke-width="2" stroke-linecap="round"/>
<circle cx="95" cy="3" r="2" fill="white"/>
<circle cx="95" cy="49" r="2" fill="white"/>
</svg>
