<svg width="506" height="42" viewBox="0 0 506 42" fill="none" xmlns="http://www.w3.org/2000/svg">
<path d="M494.667 6C494.667 8.94552 497.054 11.3333 500 11.3333C502.946 11.3333 505.333 8.94552 505.333 6C505.333 3.05448 502.946 0.666667 500 0.666667C497.054 0.666667 494.667 3.05448 494.667 6ZM18 7H500V5H18V7Z" fill="white"/>
<rect x="1.5" y="6.5" width="157" height="34" rx="17" stroke="white" stroke-width="3"/>
<path d="M43.88 30V18.992H47.208L49.96 24.336L52.648 18.992H55.976V30H52.648V24.24L50.616 28.08H49.256L47.208 24.24V30H43.88ZM56.7634 30L59.8034 18.992H64.9874L68.1714 30H64.2514L63.8354 27.888H60.9874L60.5234 30H56.7634ZM61.3234 25.92H63.4514L62.4114 21.104L61.3234 25.92ZM68.8725 30V18.992H72.6965C74.2965 18.992 75.5978 19.2213 76.6005 19.68C77.6138 20.1387 78.3552 20.7733 78.8245 21.584C79.3045 22.3947 79.5445 23.3387 79.5445 24.416C79.5445 26.176 78.9632 27.5467 77.8005 28.528C76.6485 29.5093 74.8938 30 72.5365 30H68.8725ZM72.4085 27.2H73.4325C74.2858 27.2 74.9205 26.944 75.3365 26.432C75.7525 25.9093 75.9605 25.2267 75.9605 24.384C75.9605 23.6053 75.7578 22.9813 75.3525 22.512C74.9578 22.032 74.3178 21.792 73.4325 21.792H72.4085V27.2ZM80.6813 30V18.992H88.4093V21.424H84.5693V23.376H88.0733V25.392H84.5693V27.488H88.4093V30H80.6813ZM92.5175 30V18.992H96.1335V30H92.5175ZM97.7325 30V18.992H100.933L105.253 24.832V18.992H108.197V30H104.997L100.677 24.4V30H97.7325ZM114.024 30.096C113.437 30.096 112.989 29.9413 112.68 29.632C112.37 29.312 112.216 28.9227 112.216 28.464C112.216 27.9947 112.381 27.6107 112.712 27.312C113.042 27.0027 113.48 26.848 114.024 26.848C114.568 26.848 115 27.008 115.32 27.328C115.65 27.648 115.816 28.0267 115.816 28.464C115.816 28.9547 115.661 29.3493 115.352 29.648C115.053 29.9467 114.61 30.096 114.024 30.096ZM114.024 25.072C113.437 25.072 112.989 24.9173 112.68 24.608C112.37 24.288 112.216 23.8987 112.216 23.44C112.216 22.9707 112.381 22.5867 112.712 22.288C113.042 21.9787 113.48 21.824 114.024 21.824C114.568 21.824 115 21.984 115.32 22.304C115.65 22.624 115.816 23.0027 115.816 23.44C115.816 23.9307 115.661 24.3253 115.352 24.624C115.053 24.9227 114.61 25.072 114.024 25.072Z" fill="white"/>
</svg>
