<svg width="505" height="42" viewBox="0 0 505 42" fill="none" xmlns="http://www.w3.org/2000/svg">
<path d="M493.666 5.5C493.666 8.44552 496.054 10.8333 499 10.8333C501.945 10.8333 504.333 8.44552 504.333 5.5C504.333 2.55448 501.945 0.166667 499 0.166667C496.054 0.166667 493.666 2.55448 493.666 5.5ZM16.9996 6.5H499V4.5H16.9996V6.5Z" fill="white"/>
<rect x="1.5" y="6.5" width="157" height="34" rx="17" stroke="white" stroke-width="3"/>
<path d="M50.88 30V18.976H54.608C56.4213 18.976 57.7867 19.2747 58.704 19.872C59.632 20.4587 60.096 21.328 60.096 22.48C60.096 23.28 59.8933 23.9627 59.488 24.528C59.0933 25.0827 58.5333 25.5093 57.808 25.808C57.0827 26.096 56.2293 26.24 55.248 26.24H54.416V30H50.88ZM55.104 24.016C55.6693 24.016 56.1067 23.8987 56.416 23.664C56.7253 23.4293 56.88 23.0773 56.88 22.608C56.88 22.1707 56.7307 21.8453 56.432 21.632C56.1333 21.408 55.7013 21.296 55.136 21.296H54.416V24.016H55.104ZM61.0794 30V18.992H64.5354V27.472H68.4394L68.2794 30H61.0794ZM68.5253 30L71.5653 18.992H76.7493L79.9333 30H76.0133L75.5973 27.888H72.7493L72.2853 30H68.5253ZM73.0853 25.92H75.2133L74.1733 21.104L73.0853 25.92ZM85.7421 30.256C84.5901 30.256 83.5821 30.0267 82.7181 29.568C81.8648 29.0987 81.1981 28.4427 80.7181 27.6C80.2488 26.7573 80.0141 25.776 80.0141 24.656C80.0141 23.504 80.2595 22.4853 80.7501 21.6C81.2515 20.7147 81.9341 20.0213 82.7981 19.52C83.6728 19.008 84.6755 18.752 85.8061 18.752C87.0648 18.752 88.0515 18.9973 88.7661 19.488L88.3341 22.032C88.0248 21.8827 87.6995 21.776 87.3581 21.712C87.0275 21.6373 86.7128 21.6 86.4141 21.6C85.5395 21.6 84.8515 21.8613 84.3501 22.384C83.8488 22.9067 83.5981 23.632 83.5981 24.56C83.5981 25.4347 83.8381 26.1227 84.3181 26.624C84.8088 27.1147 85.4861 27.36 86.3501 27.36C86.6915 27.36 87.0008 27.328 87.2781 27.264C87.5661 27.2 87.9181 27.0827 88.3341 26.912L88.7821 29.44C87.8541 29.984 86.8408 30.256 85.7421 30.256ZM89.7713 30V18.992H97.4993V21.424H93.6593V23.376H97.1633V25.392H93.6593V27.488H97.4993V30H89.7713ZM103.016 30.096C102.429 30.096 101.981 29.9413 101.672 29.632C101.362 29.312 101.208 28.9227 101.208 28.464C101.208 27.9947 101.373 27.6107 101.704 27.312C102.034 27.0027 102.472 26.848 103.016 26.848C103.56 26.848 103.992 27.008 104.312 27.328C104.642 27.648 104.808 28.0267 104.808 28.464C104.808 28.9547 104.653 29.3493 104.344 29.648C104.045 29.9467 103.602 30.096 103.016 30.096ZM103.016 25.072C102.429 25.072 101.981 24.9173 101.672 24.608C101.362 24.288 101.208 23.8987 101.208 23.44C101.208 22.9707 101.373 22.5867 101.704 22.288C102.034 21.9787 102.472 21.824 103.016 21.824C103.56 21.824 103.992 21.984 104.312 22.304C104.642 22.624 104.808 23.0027 104.808 23.44C104.808 23.9307 104.653 24.3253 104.344 24.624C104.045 24.9227 103.602 25.072 103.016 25.072Z" fill="white"/>
</svg>
