<svg width="282" height="100" viewBox="0 0 282 100" fill="none" xmlns="http://www.w3.org/2000/svg">
<g clip-path="url(#clip0_1138_205)">
<circle cx="232" cy="50" r="50" fill="#A4161A" fill-opacity="0.94"/>
<path d="M32.872 33.52V42.256H22.344V73H11.368V42.256H0.952V33.52H32.872ZM47.9089 47.128C49.1409 45.336 50.6342 43.9173 52.3889 42.872C54.1435 41.8267 56.0289 41.304 58.0449 41.304V53.008H54.9649C52.5755 53.008 50.8022 53.4747 49.6449 54.408C48.4875 55.3413 47.9089 56.9653 47.9089 59.28V73H36.9329V41.584H47.9089V47.128ZM60.1878 57.264C60.1878 54.016 60.7664 51.1787 61.9238 48.752C63.1184 46.3253 64.7238 44.4587 66.7398 43.152C68.7931 41.8453 71.0704 41.192 73.5718 41.192C75.7371 41.192 77.6038 41.6213 79.1718 42.48C80.7398 43.3387 81.9531 44.496 82.8118 45.952V41.584H93.7878V73H82.8118V68.632C81.9531 70.088 80.7211 71.2453 79.1158 72.104C77.5478 72.9627 75.6998 73.392 73.5718 73.392C71.0704 73.392 68.7931 72.7387 66.7398 71.432C64.7238 70.1253 63.1184 68.2587 61.9238 65.832C60.7664 63.368 60.1878 60.512 60.1878 57.264ZM82.8118 57.264C82.8118 55.248 82.2518 53.6613 81.1318 52.504C80.0491 51.3467 78.7051 50.768 77.0998 50.768C75.4571 50.768 74.0944 51.3467 73.0118 52.504C71.9291 53.624 71.3878 55.2107 71.3878 57.264C71.3878 59.28 71.9291 60.8853 73.0118 62.08C74.0944 63.2373 75.4571 63.816 77.0998 63.816C78.7051 63.816 80.0491 63.2373 81.1318 62.08C82.2518 60.9227 82.8118 59.3173 82.8118 57.264ZM115.106 62.64L120.986 41.584H132.69L121.882 73H108.218L97.4103 41.584H109.114L115.106 62.64ZM166.425 56.928C166.425 57.7867 166.369 58.6453 166.257 59.504H145.481C145.593 61.2213 146.06 62.5093 146.881 63.368C147.74 64.1893 148.823 64.6 150.129 64.6C151.959 64.6 153.265 63.7787 154.049 62.136H165.753C165.268 64.3013 164.316 66.2427 162.897 67.96C161.516 69.64 159.761 70.9653 157.633 71.936C155.505 72.9067 153.153 73.392 150.577 73.392C147.479 73.392 144.716 72.7387 142.289 71.432C139.9 70.1253 138.015 68.2587 136.633 65.832C135.289 63.4053 134.617 60.5493 134.617 57.264C134.617 53.9787 135.289 51.1413 136.633 48.752C137.977 46.3253 139.844 44.4587 142.233 43.152C144.66 41.8453 147.441 41.192 150.577 41.192C153.676 41.192 156.42 41.8267 158.809 43.096C161.199 44.3653 163.065 46.1947 164.409 48.584C165.753 50.936 166.425 53.7173 166.425 56.928ZM155.225 54.184C155.225 52.84 154.777 51.7947 153.881 51.048C152.985 50.264 151.865 49.872 150.521 49.872C149.177 49.872 148.076 50.2453 147.217 50.992C146.359 51.7013 145.799 52.7653 145.537 54.184H155.225ZM181.893 31.56V73H170.917V31.56H181.893ZM193.688 38.672C191.746 38.672 190.178 38.1493 188.984 37.104C187.826 36.0213 187.248 34.6773 187.248 33.072C187.248 31.4293 187.826 30.0667 188.984 28.984C190.178 27.9013 191.746 27.36 193.688 27.36C195.592 27.36 197.122 27.9013 198.28 28.984C199.474 30.0667 200.072 31.4293 200.072 33.072C200.072 34.6773 199.474 36.0213 198.28 37.104C197.122 38.1493 195.592 38.672 193.688 38.672ZM199.12 41.584V73H188.144V41.584H199.12ZM223.906 63.648V73H219.146C211.12 73 207.106 69.024 207.106 61.072V50.712H203.242V41.584H207.106V33.968H218.138V41.584H223.85V50.712H218.138V61.24C218.138 62.0987 218.325 62.7147 218.698 63.088C219.109 63.4613 219.781 63.648 220.714 63.648H223.906ZM234.261 73.448C232.319 73.448 230.751 72.9253 229.557 71.88C228.399 70.7973 227.821 69.4347 227.821 67.792C227.821 66.1493 228.399 64.7867 229.557 63.704C230.751 62.6213 232.319 62.08 234.261 62.08C236.165 62.08 237.695 62.6213 238.853 63.704C240.047 64.7867 240.645 66.1493 240.645 67.792C240.645 69.3973 240.047 70.7413 238.853 71.824C237.695 72.9067 236.165 73.448 234.261 73.448Z" fill="white"/>
</g>
<defs>
<clipPath id="clip0_1138_205">
<rect width="282" height="100" fill="white"/>
</clipPath>
</defs>
</svg>
